<?xml version="1.0" encoding="utf-8"?>
<!-- Generator: Adobe Illustrator 25.2.1, SVG Export Plug-In . SVG Version: 6.00 Build 0)  -->
<svg version="1.1" id="Calque_1" xmlns="http://www.w3.org/2000/svg" xmlns:xlink="http://www.w3.org/1999/xlink" x="0px" y="0px"
	 viewBox="0 0 1680 1050" style="enable-background:new 0 0 1680 1050;" xml:space="preserve">
<style type="text/css">
	.st0{fill:#ACE5E5;stroke:#000000;stroke-miterlimit:10;}
	.st1{fill:#00DFBF;}
	.st2{opacity:0.15;}
	.st3{fill:#FFFFFF;}
	.st4{opacity:0.3;}
	.st5{fill:#375A64;}
	.st6{fill:#2B454E;}
	.st7{fill:#1A2E35;}
	.st8{opacity:0.65;fill:#FFFFFF;}
	.st9{fill:#FAFAFA;}
	.st10{opacity:0.8;fill:#FFFFFF;}
	.st11{opacity:0.2;fill:#00DFBF;}
	.st12{opacity:0.1;}
	.st13{fill:#FFAAA8;}
	.st14{fill:#FF9090;}
	.st15{opacity:0.7;fill:#FFFFFF;}
	.st16{fill:#F0F0F0;}
</style>
<path class="st0" d="M0.5,0v1050.5c312.3-134.8,549.8-138.2,708-117c187.3,25.1,296.1,88.9,509,83c200.6-5.6,361.5-69.4,463-120V0"
	/>
<g id="Plants_11_">
	<g id="XMLID_28954_">
		<g id="XMLID_28958_">
			<path id="XMLID_28960_" class="st1" d="M922.9,703.9c0,0-0.5-32.5-14-59.1c-13.5-26.6-33.9-44.3-54.3-48
				c-20.3-3.7-38.8,13.6-18.1,28.7c20.7,15.1,58.3,32.2,71.4,82.5L922.9,703.9z"/>
			<path id="XMLID_28959_" class="st2" d="M922.9,703.9c0,0-0.5-32.5-14-59.1c-13.5-26.6-33.9-44.3-54.3-48
				c-20.3-3.7-38.8,13.6-18.1,28.7c20.7,15.1,58.3,32.2,71.4,82.5L922.9,703.9z"/>
		</g>
		<path id="XMLID_28957_" class="st3" d="M917.7,694.9c0.1,0,0.1,0,0.2,0c0.6-0.2,0.9-0.8,0.7-1.4c-16.3-55.5-55.3-81.8-73.7-88
			c-0.6-0.2-1.2,0.1-1.4,0.7c-0.2,0.6,0.1,1.2,0.7,1.4c18,6.1,56.2,32,72.3,86.5C916.7,694.7,917.2,695,917.7,694.9z"/>
	</g>
	<g id="Plant_9_">
		<path class="st1" d="M924.9,734.6c-7.6,4.3-11.9,7.2-25.7,8.3c-8.3,0.7-19.5-0.5-29.1-4c-2.6-0.9-6.5-3-4.3-5.4
			c1.2-1.3,14.7-3.4,19.6-9.2c-5.7,1.5-13.2,3.2-19.1,3.4c-5.9,0.1-12-1.3-16.5-5.1c-4.5-3.8-6.9-9.4-9.2-14.7
			c-0.8-1.8-1.5-4.1-0.3-5.7c0.8-1,2.1-1.4,3.3-1.8c5.1-1.4,10.3-2.9,15.4-4.3c3.4-0.7,1-2.9-0.3-3.1c-2.2-0.3-4.3-0.3-5.6-0.3
			c-5.9,0.3-12.4,1.4-17.2-2c-2.9-2-4.6-5.4-5.3-8.9c-0.3-1.2-1.3-17.1-0.6-17.3c3.8-1,7.8-1.6,11.8-2.1c3.7-0.4,7.4-0.6,11.1-1.1
			c4.2-0.6,8.4-0.8,12.7-0.8c1.4,0,3,0.1,4.2,0.8c1.7,1.1,2.3,3.2,2.5,5.1c0.2,2,0.1,4,0.8,5.9c1.8-0.2,2.4-2.5,2.4-4.3
			c0-1.8,0-4.1,1.6-4.9c0.8-0.4,1.8-0.2,2.7-0.1c5.8,1.2,11.4,3,16.7,5.5c2.4,1.1,4.9,2.5,6.6,4.5c2.6,3,3.3,7.2,3.4,11.2
			c0,4-0.6,7.9-0.3,11.9c3.1-2.8,7.4-11.2,7.8-15.3c6.7,4.3,10.6,13.1,11.9,25.2c0.8,8,0.6,18.5-0.5,26.6
			C925.2,733,925.2,734.4,924.9,734.6z"/>
		<path class="st4" d="M924.9,734.6c-7.6,4.3-11.9,7.2-25.7,8.3c-8.3,0.7-19.5-0.5-29.1-4c-2.6-0.9-6.5-3-4.3-5.4
			c1.2-1.3,14.7-3.4,19.6-9.2c-5.7,1.5-13.2,3.2-19.1,3.4c-5.9,0.1-12-1.3-16.5-5.1c-4.5-3.8-6.9-9.4-9.2-14.7
			c-0.8-1.8-1.5-4.1-0.3-5.7c0.8-1,2.1-1.4,3.3-1.8c5.1-1.4,10.3-2.9,15.4-4.3c3.4-0.7,1-2.9-0.3-3.1c-2.2-0.3-4.3-0.3-5.6-0.3
			c-5.9,0.3-12.4,1.4-17.2-2c-2.9-2-4.6-5.4-5.3-8.9c-0.3-1.2-1.3-17.1-0.6-17.3c3.8-1,7.8-1.6,11.8-2.1c3.7-0.4,7.4-0.6,11.1-1.1
			c4.2-0.6,8.4-0.8,12.7-0.8c1.4,0,3,0.1,4.2,0.8c1.7,1.1,2.3,3.2,2.5,5.1c0.2,2,0.1,4,0.8,5.9c1.8-0.2,2.4-2.5,2.4-4.3
			c0-1.8,0-4.1,1.6-4.9c0.8-0.4,1.8-0.2,2.7-0.1c5.8,1.2,11.4,3,16.7,5.5c2.4,1.1,4.9,2.5,6.6,4.5c2.6,3,3.3,7.2,3.4,11.2
			c0,4-0.6,7.9-0.3,11.9c3.1-2.8,7.4-11.2,7.8-15.3c6.7,4.3,10.6,13.1,11.9,25.2c0.8,8,0.6,18.5-0.5,26.6
			C925.2,733,925.2,734.4,924.9,734.6z"/>
		<g>
			<g>
				<path class="st3" d="M923.7,733.1c-0.3,0-0.6-0.2-0.8-0.5c-21.6-41.5-69.4-59-81-61.4c-0.5-0.1-0.8-0.6-0.7-1.1
					c0.1-0.5,0.6-0.8,1.1-0.7c11.8,2.4,60.4,20.2,82.3,62.3c0.2,0.4,0.1,1-0.4,1.2C924,733,923.8,733.1,923.7,733.1z"/>
			</g>
			<g>
				<path class="st3" d="M860.9,709.2c-0.5,0-0.9-0.4-0.9-0.8c0-0.5,0.3-0.9,0.8-1c23.9-1.9,31.6-11.2,31.6-11.3
					c0.3-0.4,0.9-0.5,1.3-0.1c0.4,0.3,0.5,0.9,0.2,1.3C893.6,697.6,885.7,707.2,860.9,709.2C860.9,709.2,860.9,709.2,860.9,709.2z"
					/>
			</g>
		</g>
	</g>
</g>
<g id="Plants_8_">
	<g id="XMLID_28976_">
		<g id="XMLID_28994_">
			<path class="st1" d="M1501.1,593.4c-10.6,11.6-30,30.6-41.2,49c0,0-0.1,0.1-0.1,0.1c-4.4,7.2-7.6,14.3-8.4,20.8l-0.8,11.7
				l-4.8-2.8l-0.8-0.5l-2-1.1l0,0c-2.9-1.7-4.7-4.7-4.7-8c-0.8-28.6,6.9-53,14.3-67.7c10.1-20.1,29.1-40.6,45.6-38.6
				C1513.4,558.2,1515.8,577.3,1501.1,593.4z"/>
			<path class="st2" d="M1501.1,593.4c-10.6,11.6-30,30.6-41.2,49c0,0-0.1,0.1-0.1,0.1c-4.4,7.2-7.6,14.3-8.4,20.8l-0.8,11.7
				l-4.8-2.8l-0.8-0.5l-2-1.1l0,0c-2.9-1.7-4.7-4.7-4.7-8c-0.8-28.6,6.9-53,14.3-67.7c10.1-20.1,29.1-40.6,45.6-38.6
				C1513.4,558.2,1515.8,577.3,1501.1,593.4z"/>
		</g>
		<path class="st3" d="M1493.3,567.4c-20.2,12.8-49,57.3-48.4,104.4l-2-1.1c-0.2-47.4,28.9-92,49.3-104.9c0.5-0.3,1.1-0.2,1.4,0.3
			C1493.9,566.5,1493.8,567.1,1493.3,567.4z"/>
	</g>
	<g id="XMLID_28961_">
		<g id="XMLID_28963_">
			<path class="st1" d="M1513.1,631.2c-3.5,9.6-23.6,17.8-38.4,31.6c-3.9,3.6-7.3,7.4-10.2,11c-2.9,3.7-8,4.6-12,2.3l0,0l-1.8-1
				l-0.1-0.1l-4.8-2.8c2.9-10.8,8-21,14-29.8c0,0,0-0.1,0.1-0.1c9.8-14.2,21.9-24.5,30.4-26.8C1506.8,611,1517.3,619.7,1513.1,631.2
				z"/>
			<path class="st4" d="M1513.1,631.2c-3.5,9.6-23.6,17.8-38.4,31.6c-3.9,3.6-7.3,7.4-10.2,11c-2.9,3.7-8,4.6-12,2.3l0,0l-1.8-1
				l-0.1-0.1l-4.8-2.8c2.9-10.8,8-21,14-29.8c0,0,0-0.1,0.1-0.1c9.8-14.2,21.9-24.5,30.4-26.8C1506.8,611,1517.3,619.7,1513.1,631.2
				z"/>
		</g>
		<path class="st3" d="M1498.9,625.4c-12.1,3.4-35.7,18.2-46.5,50.7l-1.8-1c11-32.9,34.4-47.9,47.7-51.6c0.5-0.2,1.1,0.2,1.2,0.7
			C1499.8,624.7,1499.5,625.3,1498.9,625.4z"/>
	</g>
</g>
<g id="Laptop_2_">
	<g>
		<path id="XMLID_28956_" class="st5" d="M911.6,753.4c0,5.3,4,11.9,8.8,14.7l192.4,111.1c4.9,2.8,12.8,2.8,17.7,0l338.8-195.6
			c4.9-2.8,8.8-9.4,8.8-14.7c0-5.3-4-11.9-8.8-14.7l-192.4-111.1c-4.9-2.8-12.8-2.8-17.7,0L920.4,738.7
			C915.5,741.5,911.6,748.1,911.6,753.4z"/>
		<path id="XMLID_28955_" class="st6" d="M1478.1,668.9c0,5.3-4,11.9-8.8,14.7l-338.8,195.6c-2.4,1.4-5.6,2.1-8.8,2.1v-19.1
			c3.2,0,6.4-0.7,8.8-2.1l338.8-195.6c4.3-2.5,4.8-6.3,1.6-9.1C1475,658.5,1478.1,664.2,1478.1,668.9z"/>
		<path id="XMLID_28953_" class="st7" d="M1121.7,862.2v19.1c-3.2,0-6.4-0.7-8.8-2.1L920.4,768.1c-4.9-2.8-8.8-9.4-8.8-14.7
			c0-5,3.5-11,7.9-14.1c-4,2.8-3.7,7,0.9,9.6L1112.8,860C1115.3,861.4,1118.5,862.2,1121.7,862.2z"/>
	</g>
	<g>
		<path id="XMLID_28952_" class="st6" d="M903.3,739c-4.3-3-4.3-7.1-4.3-12.7l0-284.7c0-5.6,4-12.5,8.8-15.3l338.8-195.6
			c4.9-2.8,9.4-0.8,14,1.9c4.6,2.6,7.5,4.9,7.5,10.6v284.7c0,5.6-4,12.5-8.8,15.3L920.4,738.7C913,743.7,908,742.4,903.3,739z"/>
		<path class="st7" d="M920.4,738.7c-7.4,5-12.4,3.6-17.1,0.3c-4.3-3-4.3-7.1-4.3-12.7V441.6c0-2.8,1-5.9,2.6-8.7l12.6,7.3
			c-1.6,2.7-2.6,5.9-2.6,8.7v284.7C911.6,739.3,915.5,741.5,920.4,738.7z"/>
		<path id="XMLID_28951_" class="st5" d="M1268.1,243.1c0-5.6-4-7.9-8.8-5.1L920.4,433.6c-2.4,1.4-4.7,3.8-6.2,6.6l-12.6-7.3h0
			c1.6-2.8,3.8-5.2,6.3-6.6l338.8-195.6c4.9-2.8,9.4-0.8,14,1.9C1265.1,235.2,1268.1,237.5,1268.1,243.1z"/>
	</g>
	<g>
		<path id="XMLID_28949_" class="st7" d="M925.2,443.8l326.6-188.5c2.9-1.7,5.3-0.3,5.3,3.1v261.1c0,3.4-2.4,7.5-5.3,9.2
			L925.2,717.2c-2.9,1.7-5.3,0.3-5.3-3.1V453C919.9,449.6,922.2,445.5,925.2,443.8z"/>
		<path class="st1" d="M925.2,443.8c-2.9,1.7-5.3,5.8-5.3,9.2v259.6l324.7-187.4c2.9-1.7,5.3-5.8,5.3-9.2V256.4L925.2,443.8z"/>
		<path class="st8" d="M925.2,443.8c-2.9,1.7-5.3,5.8-5.3,9.2v259.6l324.7-187.4c2.9-1.7,5.3-5.8,5.3-9.2V256.4L925.2,443.8z"/>
	</g>
	<path id="XMLID_28948_" class="st6" d="M944.9,739.2l314.5-181.6c2.4-1.4,6.4-1.4,8.8,0l9.1,4.8c2.4,1.4,2.4,3.7,0,5.1L962.8,749.1
		c-2.4,1.4-6.4,1.4-8.8,0l-9.1-4.8C942.4,742.9,942.4,740.7,944.9,739.2z"/>
	<g id="XMLID_8036_">
		<path id="XMLID_28947_" class="st7" d="M969.5,753.9L1284,572.4c2.4-1.4,6.1-1.6,8.1-0.4l81.9,47.3c2,1.2,1.7,3.3-0.8,4.7
			l-314.1,181.3c-2.4,1.4-6.1,1.6-8.1,0.5l-82.2-47C966.8,757.4,967.1,755.3,969.5,753.9z"/>
		<path id="XMLID_8037_" class="st5" d="M1239.4,647.9l9.8-5.7c0.4-0.2,0.5-0.6,0.1-0.8l-8.7-5c-0.3-0.2-1-0.2-1.4,0.1l-9.8,5.7
			c-0.4,0.2-0.5,0.6-0.1,0.8l8.7,5C1238.4,648.1,1239,648.1,1239.4,647.9z M1225.7,628.6l-9.8,5.7c-0.4,0.2-0.5,0.6-0.1,0.8l8.7,5
			c0.3,0.2,1,0.2,1.4-0.1l9.8-5.7c0.4-0.2,0.5-0.6,0.1-0.8l-8.7-5C1226.7,628.3,1226.1,628.3,1225.7,628.6z M1193.9,646.9l-16.7,9.6
			c-0.4,0.2-0.5,0.6-0.1,0.8l8.7,5c0.3,0.2,1,0.2,1.4-0.1l16.7-9.6c0.4-0.2,0.5-0.6,0.1-0.8l-8.7-5
			C1194.9,646.7,1194.3,646.7,1193.9,646.9z M1211.3,636.9l-9.8,5.7c-0.4,0.2-0.5,0.6-0.1,0.8l8.7,5c0.3,0.2,1,0.2,1.4-0.1l9.8-5.7
			c0.4-0.2,0.5-0.6,0.1-0.8l-8.7-5C1212.3,636.6,1211.7,636.6,1211.3,636.9z M1172.7,659.2l-9.8,5.7c-0.4,0.2-0.5,0.6-0.1,0.8l8.7,5
			c0.3,0.2,1,0.2,1.4-0.1l9.8-5.7c0.4-0.2,0.5-0.6,0.1-0.8l-8.7-5C1173.7,658.9,1173.1,658.9,1172.7,659.2z M1158.3,667.5l-9.8,5.7
			c-0.4,0.2-0.5,0.6-0.1,0.8l8.7,5c0.3,0.2,1,0.2,1.4-0.1l9.8-5.7c0.4-0.2,0.5-0.6,0.1-0.8l-8.7-5
			C1159.3,667.2,1158.7,667.2,1158.3,667.5z M1194.8,689.4l9.8-5.7c0.4-0.2,0.5-0.6,0.1-0.8l-8.7-5c-0.3-0.2-1-0.2-1.4,0.1l-9.8,5.7
			c-0.4,0.2-0.5,0.6-0.1,0.8l8.7,5C1193.7,689.7,1194.4,689.7,1194.8,689.4z M1180.4,697.7l9.8-5.7c0.4-0.2,0.5-0.6,0.1-0.8l-8.7-5
			c-0.3-0.2-1-0.2-1.4,0.1l-9.8,5.7c-0.4,0.2-0.5,0.6-0.1,0.8l8.7,5C1179.4,698,1180,698,1180.4,697.7z M1166,706l9.8-5.7
			c0.4-0.2,0.5-0.6,0.1-0.8l-8.7-5c-0.3-0.2-1-0.2-1.4,0.1l-9.8,5.7c-0.4,0.2-0.5,0.6-0.1,0.8l8.7,5
			C1165,706.3,1165.6,706.3,1166,706z M1151.6,714.3l9.8-5.7c0.4-0.2,0.5-0.6,0.1-0.8l-8.7-5c-0.3-0.2-1-0.2-1.4,0.1l-9.8,5.7
			c-0.4,0.2-0.5,0.6-0.1,0.8l8.7,5C1150.6,714.6,1151.2,714.6,1151.6,714.3z M1225,656.2l9.8-5.7c0.4-0.2,0.5-0.6,0.1-0.8l-8.7-5
			c-0.3-0.2-1-0.2-1.4,0.1l-9.8,5.7c-0.4,0.2-0.5,0.6-0.1,0.8l8.7,5C1224,656.5,1224.6,656.4,1225,656.2z M1209.2,681.1l22-12.7
			c0.4-0.2,0.5-0.6,0.1-0.8l-22.3-12.9c-0.3-0.2-1-0.2-1.4,0.1l-11.4,6.6c-0.4,0.2-0.5,0.6-0.1,0.8l12.4,7.2
			c0.3,0.2,0.3,0.6-0.1,0.8l-9.1,5.2c-0.4,0.2-0.5,0.6-0.1,0.8l8.7,5C1208.1,681.4,1208.7,681.4,1209.2,681.1z M1143.9,675.8
			l-9.8,5.7c-0.4,0.2-0.5,0.6-0.1,0.8l8.7,5c0.3,0.2,1,0.2,1.4-0.1l9.8-5.7c0.4-0.2,0.5-0.6,0.1-0.8l-8.7-5
			C1144.9,675.5,1144.3,675.5,1143.9,675.8z M1129.5,684.1l-9.8,5.7c-0.4,0.2-0.5,0.6-0.1,0.8l8.7,5c0.3,0.2,1,0.2,1.4-0.1l9.8-5.7
			c0.4-0.2,0.5-0.6,0.1-0.8l-8.7-5C1130.5,683.8,1129.9,683.9,1129.5,684.1z M1049.5,772.6c0.3,0.2,1,0.2,1.4-0.1l9.8-5.7
			c0.4-0.2,0.5-0.6,0.1-0.8l-8.7-5c-0.3-0.2-1-0.2-1.4,0.1l-9.8,5.7c-0.4,0.2-0.5,0.6-0.1,0.8L1049.5,772.6z M1014.4,750.6l-9.8,5.7
			c-0.4,0.2-0.5,0.6-0.1,0.8l8.7,5c0.3,0.2,1,0.2,1.4-0.1l9.8-5.7c0.4-0.2,0.5-0.6,0.1-0.8l-8.7-5
			C1015.4,750.3,1014.8,750.3,1014.4,750.6z M1032,766.9c0.3,0.2,1,0.2,1.4-0.1l9.8-5.7c0.4-0.2,0.5-0.6,0.1-0.8l-8.7-5
			c-0.3-0.2-1-0.2-1.4,0.1l-9.8,5.7c-0.4,0.2-0.5,0.6-0.1,0.8L1032,766.9z M1072.1,776l9.8-5.7c0.4-0.2,0.5-0.6,0.1-0.8l-8.7-5
			c-0.3-0.2-1-0.2-1.4,0.1l-9.8,5.7c-0.4,0.2-0.5,0.6-0.1,0.8l8.7,5C1071.1,776.3,1071.7,776.3,1072.1,776z M1056.3,784.4
			c0.3,0.2,1,0.2,1.4-0.1l9.8-5.7c0.4-0.2,0.5-0.6,0.1-0.8l-8.7-5c-0.3-0.2-1-0.2-1.4,0.1l-9.8,5.7c-0.4,0.2-0.5,0.6-0.1,0.8
			L1056.3,784.4z M1028.8,742.3l-9.8,5.7c-0.4,0.2-0.5,0.6-0.1,0.8l8.7,5c0.3,0.2,1,0.2,1.4-0.1l9.8-5.7c0.4-0.2,0.5-0.6,0.1-0.8
			l-8.7-5C1029.8,742,1029.2,742,1028.8,742.3z M1100.7,700.7l-9.8,5.7c-0.4,0.2-0.5,0.6-0.1,0.8l8.7,5c0.3,0.2,1,0.2,1.4-0.1
			l9.8-5.7c0.4-0.2,0.5-0.6,0.1-0.8l-8.7-5C1101.8,700.4,1101.1,700.5,1100.7,700.7z M1043.2,734l-9.8,5.7c-0.4,0.2-0.5,0.6-0.1,0.8
			l8.7,5c0.3,0.2,1,0.2,1.4-0.1l9.8-5.7c0.4-0.2,0.5-0.6,0.1-0.8l-8.7-5C1044.2,733.7,1043.6,733.7,1043.2,734z M1115.1,692.4
			l-9.8,5.7c-0.4,0.2-0.5,0.6-0.1,0.8l8.7,5c0.3,0.2,1,0.2,1.4-0.1l9.8-5.7c0.4-0.2,0.5-0.6,0.1-0.8l-8.7-5
			C1116.2,692.1,1115.5,692.2,1115.1,692.4z M1086.3,709l-9.8,5.7c-0.4,0.2-0.5,0.6-0.1,0.8l8.7,5c0.3,0.2,1,0.2,1.4-0.1l9.8-5.7
			c0.4-0.2,0.5-0.6,0.1-0.8l-8.7-5C1087.4,708.7,1086.8,708.8,1086.3,709z M1071.9,717.3l-9.8,5.7c-0.4,0.2-0.5,0.6-0.1,0.8l8.7,5
			c0.3,0.2,1,0.2,1.4-0.1l9.8-5.7c0.4-0.2,0.5-0.6,0.1-0.8l-8.7-5C1073,717.1,1072.4,717.1,1071.9,717.3z M1057.6,725.6l-9.8,5.7
			c-0.4,0.2-0.5,0.6-0.1,0.8l8.7,5c0.3,0.2,1,0.2,1.4-0.1l9.8-5.7c0.4-0.2,0.5-0.6,0.1-0.8l-8.7-5
			C1058.6,725.4,1058,725.4,1057.6,725.6z M1122.8,731l9.8-5.7c0.4-0.2,0.5-0.6,0.1-0.8l-8.7-5c-0.3-0.2-1-0.2-1.4,0.1l-9.8,5.7
			c-0.4,0.2-0.5,0.6-0.1,0.8l8.7,5C1121.8,731.2,1122.4,731.2,1122.8,731z M1257.5,610.2l-9.8,5.7c-0.4,0.2-0.5,0.6-0.1,0.8l8.7,5
			c0.3,0.2,1,0.2,1.4-0.1l9.8-5.7c0.4-0.2,0.5-0.6,0.1-0.8l-8.7-5C1258.5,609.9,1257.9,610,1257.5,610.2z M1240.1,620.3l-9.8,5.7
			c-0.4,0.2-0.5,0.6-0.1,0.8l8.7,5c0.3,0.2,1,0.2,1.4-0.1l9.8-5.7c0.4-0.2,0.5-0.6,0.1-0.8l-8.7-5
			C1241.1,620,1240.5,620,1240.1,620.3z M1271.9,601.9l-9.8,5.7c-0.4,0.2-0.5,0.6-0.1,0.8l8.7,5c0.3,0.2,1,0.2,1.4-0.1l9.8-5.7
			c0.4-0.2,0.5-0.6,0.1-0.8l-8.7-5C1272.9,601.6,1272.3,601.6,1271.9,601.9z M1191.7,675.4l9.8-5.7c0.4-0.2,0.5-0.6,0.1-0.8l-8.7-5
			c-0.3-0.2-1-0.2-1.4,0.1l-9.8,5.7c-0.4,0.2-0.5,0.6-0.1,0.8l8.7,5C1190.7,675.7,1191.3,675.7,1191.7,675.4z M1287.7,593.5
			c-0.3-0.2-1-0.2-1.4,0.1l-9.8,5.7c-0.4,0.2-0.5,0.6-0.1,0.8l8.7,5c0.3,0.2,1,0.2,1.4-0.1l9.8-5.7c0.4-0.2,0.5-0.6,0.1-0.8
			L1287.7,593.5z M1137.2,722.7l9.8-5.7c0.4-0.2,0.5-0.6,0.1-0.8l-8.7-5c-0.3-0.2-1-0.2-1.4,0.1l-9.8,5.7c-0.4,0.2-0.5,0.6-0.1,0.8
			l8.7,5C1136.2,722.9,1136.8,722.9,1137.2,722.7z M1313.7,620.8l9.8-5.7c0.4-0.2,0.5-0.6,0.1-0.8l-8.7-5c-0.3-0.2-1-0.2-1.4,0.1
			l-9.8,5.7c-0.4,0.2-0.5,0.6-0.1,0.8l8.7,5C1312.7,621,1313.3,621,1313.7,620.8z M1285.6,621.2l9.8-5.7c0.4-0.2,0.5-0.6,0.1-0.8
			l-8.7-5c-0.3-0.2-1-0.2-1.4,0.1l-9.8,5.7c-0.4,0.2-0.5,0.6-0.1,0.8l8.7,5C1284.6,621.5,1285.2,621.4,1285.6,621.2z M1301.3,601.4
			c-0.3-0.2-1-0.2-1.4,0.1l-9.8,5.7c-0.4,0.2-0.5,0.6-0.1,0.8l8.7,5c0.3,0.2,1,0.2,1.4-0.1l9.8-5.7c0.4-0.2,0.5-0.6,0.1-0.8
			L1301.3,601.4z M1304.4,599.6l22.3,12.9c0.3,0.2,1,0.2,1.4-0.1l9.8-5.7c0.4-0.2,0.5-0.6,0.1-0.8l-22.3-12.9
			c-0.3-0.2-1-0.2-1.4,0.1l-9.8,5.7C1304.1,599.1,1304,599.4,1304.4,599.6z M1271.2,618.1l-9.8,5.7c-0.4,0.2-0.5,0.6-0.1,0.8l8.7,5
			c0.3,0.2,1,0.2,1.4-0.1l9.8-5.7c0.4-0.2,0.5-0.6,0.1-0.8l-8.7-5C1272.2,617.8,1271.6,617.8,1271.2,618.1z M1162.9,680.6l-9.8,5.7
			c-0.4,0.2-0.5,0.6-0.1,0.8l8.7,5c0.3,0.2,1,0.2,1.4-0.1l9.8-5.7c0.4-0.2,0.5-0.6,0.1-0.8l-8.7-5
			C1163.9,680.3,1163.3,680.4,1162.9,680.6z M1297.9,629.2c0.3,0.2,1,0.2,1.4-0.1l9.8-5.7c0.4-0.2,0.5-0.6,0.1-0.8l-8.7-5
			c-0.3-0.2-1-0.2-1.4,0.1l-9.8,5.7c-0.4,0.2-0.5,0.6-0.1,0.8L1297.9,629.2z M1177.3,672.3l-9.8,5.7c-0.4,0.2-0.5,0.6-0.1,0.8l8.7,5
			c0.3,0.2,1,0.2,1.4-0.1l9.8-5.7c0.4-0.2,0.5-0.6,0.1-0.8l-8.7-5C1178.3,672,1177.7,672.1,1177.3,672.3z M1063.9,764.3
			c0.3,0.2,1,0.2,1.4-0.1l9.8-5.7c0.4-0.2,0.5-0.6,0.1-0.8l-8.7-5c-0.3-0.2-1-0.2-1.4,0.1l-9.8,5.7c-0.4,0.2-0.5,0.6-0.1,0.8
			L1063.9,764.3z M1047.7,747.1l-9.8,5.7c-0.4,0.2-0.5,0.6-0.1,0.8l8.7,5c0.3,0.2,1,0.2,1.4-0.1l9.8-5.7c0.4-0.2,0.5-0.6,0.1-0.8
			l-8.7-5C1048.8,746.8,1048.2,746.8,1047.7,747.1z M1079.7,755.9l9.8-5.7c0.4-0.2,0.5-0.6,0.1-0.8l-8.7-5c-0.3-0.2-1-0.2-1.4,0.1
			l-9.8,5.7c-0.4,0.2-0.5,0.6-0.1,0.8l8.7,5C1078.6,756.2,1079.2,756.1,1079.7,755.9z M1094,747.6l9.8-5.7c0.4-0.2,0.5-0.6,0.1-0.8
			l-8.7-5c-0.3-0.2-1-0.2-1.4,0.1l-9.8,5.7c-0.4,0.2-0.5,0.6-0.1,0.8l8.7,5C1093,747.9,1093.6,747.8,1094,747.6z M1108.4,739.3
			l9.8-5.7c0.4-0.2,0.5-0.6,0.1-0.8l-8.7-5c-0.3-0.2-1-0.2-1.4,0.1l-9.8,5.7c-0.4,0.2-0.5,0.6-0.1,0.8l8.7,5
			C1107.4,739.6,1108,739.5,1108.4,739.3z M1062.1,738.8l-9.8,5.7c-0.4,0.2-0.5,0.6-0.1,0.8l8.7,5c0.3,0.2,1,0.2,1.4-0.1l9.8-5.7
			c0.4-0.2,0.5-0.6,0.1-0.8l-8.7-5C1063.2,738.5,1062.5,738.5,1062.1,738.8z M1076.5,730.5l-9.8,5.7c-0.4,0.2-0.5,0.6-0.1,0.8l8.7,5
			c0.3,0.2,1,0.2,1.4-0.1l9.8-5.7c0.4-0.2,0.5-0.6,0.1-0.8l-8.7-5C1077.6,730.2,1076.9,730.2,1076.5,730.5z M1134.1,697.2l-9.8,5.7
			c-0.4,0.2-0.5,0.6-0.1,0.8l8.7,5c0.3,0.2,1,0.2,1.4-0.1l9.8-5.7c0.4-0.2,0.5-0.6,0.1-0.8l-8.7-5
			C1135.1,697,1134.5,697,1134.1,697.2z M1119.7,705.5l-9.8,5.7c-0.4,0.2-0.5,0.6-0.1,0.8l8.7,5c0.3,0.2,1,0.2,1.4-0.1l9.8-5.7
			c0.4-0.2,0.5-0.6,0.1-0.8l-8.7-5C1120.7,705.3,1120.1,705.3,1119.7,705.5z M1148.5,688.9l-9.8,5.7c-0.4,0.2-0.5,0.6-0.1,0.8l8.7,5
			c0.3,0.2,1,0.2,1.4-0.1l9.8-5.7c0.4-0.2,0.5-0.6,0.1-0.8l-8.7-5C1149.5,688.6,1148.9,688.7,1148.5,688.9z M1090.9,722.2l-9.8,5.7
			c-0.4,0.2-0.5,0.6-0.1,0.8l8.7,5c0.3,0.2,1,0.2,1.4-0.1l9.8-5.7c0.4-0.2,0.5-0.6,0.1-0.8l-8.7-5
			C1091.9,721.9,1091.3,721.9,1090.9,722.2z M1105.3,713.8l-9.8,5.7c-0.4,0.2-0.5,0.6-0.1,0.8l8.7,5c0.3,0.2,1,0.2,1.4-0.1l9.8-5.7
			c0.4-0.2,0.5-0.6,0.1-0.8l-8.7-5C1106.3,713.6,1105.7,713.6,1105.3,713.8z M1086.5,767.7l9.8-5.7c0.4-0.2,0.5-0.6,0.1-0.8l-8.7-5
			c-0.3-0.2-1-0.2-1.4,0.1l-9.8,5.7c-0.4,0.2-0.5,0.6-0.1,0.8l8.7,5C1085.5,768,1086.1,768,1086.5,767.7z M1010.1,763.8l-8.7-5
			c-0.3-0.2-1-0.2-1.4,0.1l-9.8,5.7c-0.4,0.2-0.5,0.6-0.1,0.8l8.7,5c0.3,0.2,1,0.2,1.4-0.1l9.8-5.7
			C1010.3,764.4,1010.4,764,1010.1,763.8z M1029,768.6l-8.7-5c-0.3-0.2-1-0.2-1.4,0.1l-15.1,8.7c-0.4,0.2-0.5,0.6-0.1,0.8l8.7,5
			c0.3,0.2,1,0.2,1.4-0.1l15.1-8.7C1029.3,769.2,1029.4,768.8,1029,768.6z M997.3,753.8l-8.7-5c-0.3-0.2-1-0.2-1.4,0.1l-12.1,7
			c-0.4,0.2-0.5,0.6-0.1,0.8l8.7,5c0.3,0.2,1,0.2,1.4-0.1l12.1-7C997.6,754.4,997.6,754,997.3,753.8z M1006.6,748.4
			c0.3,0.2,1,0.2,1.4-0.1l9.8-5.7c0.4-0.2,0.5-0.6,0.1-0.8l-8.7-5c-0.3-0.2-1-0.2-1.4,0.1l-9.8,5.7c-0.4,0.2-0.5,0.6-0.1,0.8
			L1006.6,748.4z M1046.5,774.3l-8.7-5c-0.3-0.2-1-0.2-1.4,0.1l-18.9,10.9c-0.4,0.2-0.5,0.6-0.1,0.8l8.7,5c0.3,0.2,1,0.2,1.4-0.1
			l18.9-10.9C1046.7,774.9,1046.8,774.5,1046.5,774.3z M1053.3,786.2l-8.7-5c-0.3-0.2-1-0.2-1.4,0.1l-12.1,7
			c-0.4,0.2-0.5,0.6-0.1,0.8l8.7,5c0.3,0.2,1,0.2,1.4-0.1l12.1-7C1053.6,786.7,1053.6,786.4,1053.3,786.2z M1113.6,686.7
			c0.3,0.2,1,0.2,1.4-0.1l9.8-5.7c0.4-0.2,0.5-0.6,0.1-0.8l-8.7-5c-0.3-0.2-1-0.2-1.4,0.1l-9.8,5.7c-0.4,0.2-0.5,0.6-0.1,0.8
			L1113.6,686.7z M1084.8,703.3c0.3,0.2,1,0.2,1.4-0.1l9.8-5.7c0.4-0.2,0.5-0.6,0.1-0.8l-8.7-5c-0.3-0.2-1-0.2-1.4,0.1l-9.8,5.7
			c-0.4,0.2-0.5,0.6-0.1,0.8L1084.8,703.3z M1020.9,740.1c0.3,0.2,1,0.2,1.4-0.1l9.8-5.7c0.4-0.2,0.5-0.6,0.1-0.8l-8.7-5
			c-0.3-0.2-1-0.2-1.4,0.1l-9.8,5.7c-0.4,0.2-0.5,0.6-0.1,0.8L1020.9,740.1z M1099.2,695c0.3,0.2,1,0.2,1.4-0.1l9.8-5.7
			c0.4-0.2,0.5-0.6,0.1-0.8l-8.7-5c-0.3-0.2-1-0.2-1.4,0.1l-9.8,5.7c-0.4,0.2-0.5,0.6-0.1,0.8L1099.2,695z M1070.4,711.6
			c0.3,0.2,1,0.2,1.4-0.1l9.8-5.7c0.4-0.2,0.5-0.6,0.1-0.8l-8.7-5c-0.3-0.2-1-0.2-1.4,0.1l-9.8,5.7c-0.4,0.2-0.5,0.6-0.1,0.8
			L1070.4,711.6z M1061.3,787.3c-0.3-0.2-1-0.2-1.4,0.1l-15.1,8.7c-0.4,0.2-0.5,0.6-0.1,0.8l8.7,5c0.3,0.2,1,0.2,1.4-0.1l15.1-8.7
			c0.4-0.2,0.5-0.6,0.1-0.8L1061.3,787.3z M1049.7,723.5c0.3,0.2,1,0.2,1.4-0.1l9.8-5.7c0.4-0.2,0.5-0.6,0.1-0.8l-8.7-5
			c-0.3-0.2-1-0.2-1.4,0.1l-9.8,5.7c-0.4,0.2-0.5,0.6-0.1,0.8L1049.7,723.5z M1035.3,731.8c0.3,0.2,1,0.2,1.4-0.1l9.8-5.7
			c0.4-0.2,0.5-0.6,0.1-0.8l-8.7-5c-0.3-0.2-1-0.2-1.4,0.1l-9.8,5.7c-0.4,0.2-0.5,0.6-0.1,0.8L1035.3,731.8z M1327.9,633.4
			c-0.3-0.2-1-0.2-1.4,0.1l-24.2,14c-0.4,0.2-0.5,0.6-0.1,0.8l8.7,5c0.3,0.2,1,0.2,1.4-0.1l24.2-14c0.4-0.2,0.5-0.6,0.1-0.8
			L1327.9,633.4z M1296.1,651.7c-0.3-0.2-1-0.2-1.4,0.1l-9.8,5.7c-0.4,0.2-0.5,0.6-0.1,0.8l8.7,5c0.3,0.2,1,0.2,1.4-0.1l9.8-5.7
			c0.4-0.2,0.5-0.6,0.1-0.8L1296.1,651.7z M1100.9,759.4l9.8-5.7c0.4-0.2,0.5-0.6,0.1-0.8l-8.7-5c-0.3-0.2-1-0.2-1.4,0.1l-9.8,5.7
			c-0.4,0.2-0.5,0.6-0.1,0.8l8.7,5C1099.8,759.7,1100.5,759.6,1100.9,759.4z M1267.3,668.3c-0.3-0.2-1-0.2-1.4,0.1l-9.8,5.7
			c-0.4,0.2-0.5,0.6-0.1,0.8l8.7,5c0.3,0.2,1,0.2,1.4-0.1l9.8-5.7c0.4-0.2,0.5-0.6,0.1-0.8L1267.3,668.3z M1342.3,625
			c-0.3-0.2-1-0.2-1.4,0.1l-9.8,5.7c-0.4,0.2-0.5,0.6-0.1,0.8l8.7,5c0.3,0.2,1,0.2,1.4-0.1l9.8-5.7c0.4-0.2,0.5-0.6,0.1-0.8
			L1342.3,625z M1365.4,621.8l-22.3-12.9c-0.3-0.2-1-0.2-1.4,0.1l-9.8,5.7c-0.4,0.2-0.5,0.6-0.1,0.8l22.3,12.9
			c0.3,0.2,1,0.2,1.4-0.1l9.8-5.7C1365.7,622.3,1365.7,622,1365.4,621.8z M1213.5,699.4c-0.3-0.2-1-0.2-1.4,0.1l-12.1,7
			c-0.4,0.2-0.5,0.6-0.1,0.8l8.7,5c0.3,0.2,1,0.2,1.4-0.1l12.1-7c0.4-0.2,0.5-0.6,0.1-0.8L1213.5,699.4z M1249.9,678.4
			c-0.3-0.2-1-0.2-1.4,0.1l-15.1,8.7c-0.4,0.2-0.5,0.6-0.1,0.8l8.7,5c0.3,0.2,1,0.2,1.4-0.1l15.1-8.7c0.4-0.2,0.5-0.6,0.1-0.8
			L1249.9,678.4z M1180.2,718.6c-0.3-0.2-1-0.2-1.4,0.1l-81,46.8c-0.4,0.2-0.5,0.6-0.1,0.8l8.7,5c0.3,0.2,1,0.2,1.4-0.1l81-46.8
			c0.4-0.2,0.5-0.6,0.1-0.8L1180.2,718.6z M1094.6,768c-0.3-0.2-1-0.2-1.4,0.1l-12.1,7c-0.4,0.2-0.5,0.6-0.1,0.8l8.7,5
			c0.3,0.2,1,0.2,1.4-0.1l12.1-7c0.4-0.2,0.5-0.6,0.1-0.8L1094.6,768z M1196.9,709c-0.3-0.2-1-0.2-1.4,0.1l-12.1,7
			c-0.4,0.2-0.5,0.6-0.1,0.8l8.7,5c0.3,0.2,1,0.2,1.4-0.1l12.1-7c0.4-0.2,0.5-0.6,0.1-0.8L1196.9,709z M1078,777.7
			c-0.3-0.2-1-0.2-1.4,0.1l-12.1,7c-0.4,0.2-0.5,0.6-0.1,0.8l8.7,5c0.3,0.2,1,0.2,1.4-0.1l12.1-7c0.4-0.2,0.5-0.6,0.1-0.8
			L1078,777.7z M1230.2,689.8c-0.3-0.2-1-0.2-1.4,0.1l-12.1,7c-0.4,0.2-0.5,0.6-0.1,0.8l8.7,5c0.3,0.2,1,0.2,1.4-0.1l12.1-7
			c0.4-0.2,0.5-0.6,0.1-0.8L1230.2,689.8z M1281.7,660c-0.3-0.2-1-0.2-1.4,0.1l-9.8,5.7c-0.4,0.2-0.5,0.6-0.1,0.8l8.7,5
			c0.3,0.2,1,0.2,1.4-0.1l9.8-5.7c0.4-0.2,0.5-0.6,0.1-0.8L1281.7,660z M1313,637l9.8-5.7c0.4-0.2,0.5-0.6,0.1-0.8l-8.7-5
			c-0.3-0.2-1-0.2-1.4,0.1l-9.8,5.7c-0.4,0.2-0.5,0.6-0.1,0.8l8.7,5C1311.9,637.2,1312.5,637.2,1313,637z M1253.8,639.6l9.8-5.7
			c0.4-0.2,0.5-0.6,0.1-0.8l-8.7-5c-0.3-0.2-1-0.2-1.4,0.1l-9.8,5.7c-0.4,0.2-0.5,0.6-0.1,0.8l8.7,5
			C1252.8,639.8,1253.4,639.8,1253.8,639.6z M1216,692.9l28.8-16.6c0.4-0.2,0.5-0.6,0.1-0.8l-8.7-5c-0.3-0.2-1-0.2-1.4,0.1
			l-28.8,16.6c-0.4,0.2-0.5,0.6-0.1,0.8l8.7,5C1215,693.2,1215.6,693.2,1216,692.9z M1297.2,645.4c0.3,0.2,1,0.2,1.4-0.1l9.8-5.7
			c0.4-0.2,0.5-0.6,0.1-0.8l-8.7-5c-0.3-0.2-1-0.2-1.4,0.1l-9.8,5.7c-0.4,0.2-0.5,0.6-0.1,0.8L1297.2,645.4z M1284.9,637.4l9.8-5.7
			c0.4-0.2,0.5-0.6,0.1-0.8l-8.7-5c-0.3-0.2-1-0.2-1.4,0.1l-9.8,5.7c-0.4,0.2-0.5,0.6-0.1,0.8l8.7,5
			C1283.9,637.7,1284.5,637.6,1284.9,637.4z M1201.6,701.2l9.8-5.7c0.4-0.2,0.5-0.6,0.1-0.8l-8.7-5c-0.3-0.2-1-0.2-1.4,0.1l-9.8,5.7
			c-0.4,0.2-0.5,0.6-0.1,0.8l8.7,5C1200.6,701.5,1201.2,701.5,1201.6,701.2z M1265.4,663.7c0.3,0.2,1,0.2,1.4-0.1l9.8-5.7
			c0.4-0.2,0.5-0.6,0.1-0.8l-8.7-5c-0.3-0.2-1-0.2-1.4,0.1l-9.8,5.7c-0.4,0.2-0.5,0.6-0.1,0.8L1265.4,663.7z M1129.7,742.8l9.8-5.7
			c0.4-0.2,0.5-0.6,0.1-0.8l-8.7-5c-0.3-0.2-1-0.2-1.4,0.1l-9.8,5.7c-0.4,0.2-0.5,0.6-0.1,0.8l8.7,5
			C1128.6,743.1,1129.2,743,1129.7,742.8z M1144.1,734.5l9.8-5.7c0.4-0.2,0.5-0.6,0.1-0.8l-8.7-5c-0.3-0.2-1-0.2-1.4,0.1l-9.8,5.7
			c-0.4,0.2-0.5,0.6-0.1,0.8l8.7,5C1143,734.8,1143.6,734.7,1144.1,734.5z M1115.3,751.1l9.8-5.7c0.4-0.2,0.5-0.6,0.1-0.8l-8.7-5
			c-0.3-0.2-1-0.2-1.4,0.1l-9.8,5.7c-0.4,0.2-0.5,0.6-0.1,0.8l8.7,5C1114.2,751.4,1114.9,751.3,1115.3,751.1z M1172.8,717.9l9.8-5.7
			c0.4-0.2,0.5-0.6,0.1-0.8l-8.7-5c-0.3-0.2-1-0.2-1.4,0.1l-9.8,5.7c-0.4,0.2-0.5,0.6-0.1,0.8l8.7,5
			C1171.8,718.1,1172.4,718.1,1172.8,717.9z M1158.4,726.2l9.8-5.7c0.4-0.2,0.5-0.6,0.1-0.8l-8.7-5c-0.3-0.2-1-0.2-1.4,0.1l-9.8,5.7
			c-0.4,0.2-0.5,0.6-0.1,0.8l8.7,5C1157.4,726.4,1158,726.4,1158.4,726.2z M1187.2,709.6l9.8-5.7c0.4-0.2,0.5-0.6,0.1-0.8l-8.7-5
			c-0.3-0.2-1-0.2-1.4,0.1l-9.8,5.7c-0.4,0.2-0.5,0.6-0.1,0.8l8.7,5C1186.2,709.8,1186.8,709.8,1187.2,709.6z M1266.7,594.5
			c0.3,0.2,1,0.2,1.4-0.1l9.8-5.7c0.4-0.2,0.5-0.6,0.1-0.8l-2.3-1.3c-0.3-0.2-1-0.2-1.4,0.1l-9.8,5.7c-0.4,0.2-0.5,0.6-0.1,0.8
			L1266.7,594.5z M1195,639.7c0.3,0.2,1,0.2,1.4-0.1l9.8-5.7c0.4-0.2,0.5-0.6,0.1-0.8l-8.7-5c-0.3-0.2-1-0.2-1.4,0.1l-9.8,5.7
			c-0.4,0.2-0.5,0.6-0.1,0.8L1195,639.7z M1223.7,623.1c0.3,0.2,1,0.2,1.4-0.1l9.8-5.7c0.4-0.2,0.5-0.6,0.1-0.8l-8.7-5
			c-0.3-0.2-1-0.2-1.4,0.1l-9.8,5.7c-0.4,0.2-0.5,0.6-0.1,0.8L1223.7,623.1z M1177.4,649.8c0.3,0.2,1,0.2,1.4-0.1l9.8-5.7
			c0.4-0.2,0.5-0.6,0.1-0.8l-8.7-5c-0.3-0.2-1-0.2-1.4,0.1l-9.8,5.7c-0.4,0.2-0.5,0.6-0.1,0.8L1177.4,649.8z M1209.3,631.4
			c0.3,0.2,1,0.2,1.4-0.1l9.8-5.7c0.4-0.2,0.5-0.6,0.1-0.8l-8.7-5c-0.3-0.2-1-0.2-1.4,0.1l-9.8,5.7c-0.4,0.2-0.5,0.6-0.1,0.8
			L1209.3,631.4z M1148.6,666.4c0.3,0.2,1,0.2,1.4-0.1l9.8-5.7c0.4-0.2,0.5-0.6,0.1-0.8l-8.7-5c-0.3-0.2-1-0.2-1.4,0.1l-9.8,5.7
			c-0.4,0.2-0.5,0.6-0.1,0.8L1148.6,666.4z M1163,658.1c0.3,0.2,1,0.2,1.4-0.1l9.8-5.7c0.4-0.2,0.5-0.6,0.1-0.8l-8.7-5
			c-0.3-0.2-1-0.2-1.4,0.1l-9.8,5.7c-0.4,0.2-0.5,0.6-0.1,0.8L1163,658.1z M1238,611.2c0.3,0.2,1,0.2,1.4-0.1l9.8-5.7
			c0.4-0.2,0.5-0.6,0.1-0.8l-2.3-1.3c-0.3-0.2-1-0.2-1.4,0.1l-9.8,5.7c-0.4,0.2-0.5,0.6-0.1,0.8L1238,611.2z M1281.1,586.2
			c0.3,0.2,1,0.2,1.4-0.1l9.8-5.7c0.4-0.2,0.5-0.6,0.1-0.8l-2.3-1.3c-0.3-0.2-1-0.2-1.4,0.1l-9.8,5.7c-0.4,0.2-0.5,0.6-0.1,0.8
			L1281.1,586.2z M1299.4,596.8c0.3,0.2,1,0.2,1.4-0.1l9.8-5.7c0.4-0.2,0.5-0.6,0.1-0.8l-8.7-5c-0.3-0.2-1-0.2-1.4,0.1l-9.8,5.7
			c-0.4,0.2-0.5,0.6-0.1,0.8L1299.4,596.8z M1327.3,628.7l9.8-5.7c0.4-0.2,0.5-0.6,0.1-0.8l-8.7-5c-0.3-0.2-1-0.2-1.4,0.1l-9.8,5.7
			c-0.4,0.2-0.5,0.6-0.1,0.8l8.7,5C1326.3,628.9,1326.9,628.9,1327.3,628.7z M1252.4,602.8c0.3,0.2,1,0.2,1.4-0.1l9.8-5.7
			c0.4-0.2,0.5-0.6,0.1-0.8l-2.3-1.3c-0.3-0.2-1-0.2-1.4,0.1l-9.8,5.7c-0.4,0.2-0.5,0.6-0.1,0.8L1252.4,602.8z M1134.2,674.7
			c0.3,0.2,1,0.2,1.4-0.1l9.8-5.7c0.4-0.2,0.5-0.6,0.1-0.8l-8.7-5c-0.3-0.2-1-0.2-1.4,0.1l-9.8,5.7c-0.4,0.2-0.5,0.6-0.1,0.8
			L1134.2,674.7z"/>
	</g>
	<g>
		<polygon id="XMLID_8035_" class="st7" points="1178.3,749.1 1180.3,750.2 1233.9,781.2 1329.3,726.1 1331.3,725 1275.6,692.9 		
			"/>
		<polygon class="st6" points="1328.4,726.6 1275.6,696.2 1181.2,750.7 1233.9,781.2 		"/>
	</g>
</g>
<g id="Www">
	<g id="www">
		<g>
			<path class="st1" d="M1388.6,302.6c0-4-1.4-6.8-3.7-8.2c-2.3-1.3-15.6-9-17.9-10.3c-2.3-1.3-5.4-1.1-8.9,0.9l-248.7,143.6l0,82.3
				l17.8,10.3L1376,377.6c7-4,12.7-13.9,12.7-21.9L1388.6,302.6z"/>
			<path class="st2" d="M1388.6,302.6c0-4-1.4-6.8-3.7-8.2c-2.3-1.3-15.6-9-17.9-10.3c-2.3-1.3-5.4-1.1-8.9,0.9l-248.7,143.6l0,82.3
				l17.8,10.3L1376,377.6c7-4,12.7-13.9,12.7-21.9L1388.6,302.6z"/>
			<path class="st1" d="M1376,295.3c7-4,12.7-0.8,12.7,7.3l0,53.1c0,8.1-5.7,17.9-12.7,21.9l-248.7,143.6l0-82.3L1376,295.3z"/>
			<path class="st9" d="M1373.4,370.8c4.7-2.7,8.5-9.4,8.5-14.8l0-49c0-3.9-2.7-5.4-6.1-3.5l-243.6,140.8v65.9L1373.4,370.8z"/>
		</g>
		<g>
			<path class="st5" d="M1174.7,469.5c0,0.4-0.1,0.8-0.3,1.1c-0.2,0.4-0.4,0.6-0.6,0.8l-4.2,2.4c-0.2,0.1-0.5,0.1-0.6,0
				c-0.2-0.2-0.3-0.4-0.3-0.8v-13c0-1.5-0.2-2.5-0.7-3.1c-0.5-0.6-1.2-0.6-2.2-0.1c-1,0.6-1.7,1.4-2.2,2.6c-0.5,1.2-0.7,2.5-0.7,3.9
				v13c0,0.4-0.1,0.8-0.3,1.1c-0.2,0.4-0.4,0.6-0.6,0.8l-4.2,2.4c-0.2,0.1-0.5,0.1-0.6,0c-0.2-0.2-0.3-0.4-0.3-0.8v-33.7
				c0-0.4,0.1-0.8,0.3-1.1c0.2-0.4,0.4-0.6,0.6-0.8l4.2-2.4c0.2-0.1,0.5-0.1,0.6,0c0.2,0.2,0.3,0.4,0.3,0.8v11c0.4-0.9,1-2,1.8-3.1
				c0.8-1.1,1.7-2,2.8-2.6c1.1-0.6,2-1,2.9-1c0.9-0.1,1.7,0.2,2.3,0.8c0.6,0.6,1.1,1.5,1.5,2.8c0.4,1.3,0.5,2.9,0.5,4.9V469.5z"/>
			<path class="st5" d="M1186.3,453.8c0,0.8,0.1,1.3,0.3,1.6c0.2,0.3,0.6,0.3,1.1,0l2.7-1.5c0.2-0.1,0.5-0.1,0.6,0
				c0.2,0.2,0.3,0.4,0.3,0.8v5.2c0,0.4-0.1,0.8-0.3,1.1c-0.2,0.4-0.4,0.6-0.6,0.8l-3.2,1.8c-1,0.6-2,0.9-2.9,1
				c-0.9,0-1.6-0.2-2.2-0.7c-0.6-0.5-1.1-1.3-1.4-2.4c-0.3-1.1-0.5-2.4-0.5-4v-8.6l-2.5,1.4c-0.2,0.1-0.5,0.1-0.6,0
				c-0.2-0.2-0.3-0.4-0.3-0.8v-5.2c0-0.4,0.1-0.8,0.3-1.1c0.2-0.4,0.4-0.6,0.6-0.8l2.5-1.4v-8.4c0-0.4,0.1-0.8,0.3-1.1
				c0.2-0.4,0.4-0.6,0.6-0.8l4.2-2.4c0.2-0.1,0.5-0.1,0.6,0c0.2,0.2,0.3,0.4,0.3,0.8v8.4l3.8-2.2c0.2-0.1,0.5-0.1,0.6,0
				c0.2,0.2,0.3,0.4,0.3,0.8v5.2c0,0.4-0.1,0.8-0.3,1.1c-0.2,0.4-0.4,0.6-0.6,0.8l-3.8,2.2V453.8z"/>
			<path class="st5" d="M1202.1,444.7c0,0.8,0.1,1.3,0.3,1.6c0.2,0.3,0.6,0.3,1.1,0l2.7-1.5c0.2-0.1,0.5-0.1,0.6,0
				c0.2,0.2,0.3,0.4,0.3,0.8v5.2c0,0.4-0.1,0.8-0.3,1.1c-0.2,0.4-0.4,0.6-0.6,0.8l-3.2,1.8c-1,0.6-2,0.9-2.9,1
				c-0.9,0-1.6-0.2-2.2-0.7c-0.6-0.5-1.1-1.3-1.4-2.4c-0.3-1.1-0.5-2.4-0.5-4v-8.6l-2.5,1.4c-0.2,0.1-0.5,0.1-0.6,0
				c-0.2-0.2-0.3-0.4-0.3-0.8v-5.2c0-0.4,0.1-0.8,0.3-1.1c0.2-0.4,0.4-0.6,0.6-0.8l2.5-1.4v-8.4c0-0.4,0.1-0.8,0.3-1.1
				c0.2-0.4,0.4-0.6,0.6-0.8l4.2-2.4c0.2-0.1,0.5-0.1,0.6,0c0.2,0.2,0.3,0.4,0.3,0.8v8.4l3.8-2.2c0.2-0.1,0.5-0.1,0.6,0
				c0.2,0.2,0.3,0.4,0.3,0.8v5.2c0,0.4-0.1,0.8-0.3,1.1c-0.2,0.4-0.4,0.6-0.6,0.8l-3.8,2.2V444.7z"/>
			<path class="st5" d="M1220.4,445c-0.6,0.4-1.2,0.6-1.7,0.7c-0.5,0.1-0.9,0.1-1.3,0c-0.4-0.1-0.7-0.3-0.9-0.5
				c-0.2-0.2-0.4-0.4-0.6-0.7v11c0,0.4-0.1,0.8-0.3,1.1c-0.2,0.4-0.4,0.6-0.6,0.8l-4.2,2.4c-0.2,0.1-0.5,0.1-0.6,0
				c-0.2-0.2-0.3-0.4-0.3-0.8v-33.7c0-0.4,0.1-0.8,0.3-1.1c0.2-0.4,0.4-0.6,0.6-0.8l4-2.3c0.2-0.1,0.5-0.1,0.6,0
				c0.2,0.2,0.3,0.4,0.3,0.8v1.2c0.2-0.5,0.4-0.9,0.7-1.5c0.2-0.5,0.5-1,0.9-1.5c0.3-0.5,0.8-1,1.3-1.5c0.5-0.5,1.1-0.9,1.9-1.4
				c1-0.6,1.9-0.9,2.8-0.9c0.9-0.1,1.7,0.2,2.3,0.8c0.7,0.6,1.2,1.5,1.6,2.7c0.4,1.2,0.6,2.9,0.7,4.8c0,0.5,0,1.2,0,2.1
				c0,0.9,0,1.6,0,2.1c0,2-0.3,3.9-0.7,5.6s-1,3.2-1.6,4.6c-0.7,1.4-1.4,2.5-2.3,3.5C1222.4,443.7,1221.4,444.4,1220.4,445z
				 M1221.9,431.7c0.1-1,0.1-2,0-2.9c-0.1-1.2-0.3-2.1-0.8-2.7c-0.4-0.6-1.2-0.6-2.2,0c-0.5,0.3-0.9,0.6-1.3,1.1
				c-0.4,0.4-0.7,0.9-0.9,1.5c-0.2,0.5-0.4,1.1-0.6,1.6c-0.1,0.6-0.2,1.1-0.3,1.6c0,0.5-0.1,1.2-0.1,1.8s0,1.3,0.1,1.8
				c0,0.5,0.1,0.9,0.3,1.3c0.1,0.4,0.3,0.7,0.6,1c0.2,0.3,0.5,0.4,0.9,0.4c0.4,0,0.8-0.1,1.3-0.4c1-0.6,1.8-1.5,2.2-2.6
				C1221.6,434.1,1221.9,432.9,1221.9,431.7z"/>
			<path class="st5" d="M1237.2,415.4c0,0.4-0.1,0.8-0.3,1.1c-0.2,0.4-0.4,0.6-0.6,0.8l-4.4,2.5c-0.2,0.1-0.5,0.1-0.6,0
				c-0.2-0.2-0.3-0.4-0.3-0.8v-6.7c0-0.4,0.1-0.8,0.3-1.1c0.2-0.4,0.4-0.6,0.6-0.8l4.4-2.5c0.2-0.1,0.5-0.1,0.6,0
				c0.2,0.2,0.3,0.4,0.3,0.8V415.4z M1237.2,433.4c0,0.4-0.1,0.8-0.3,1.1c-0.2,0.4-0.4,0.6-0.6,0.8l-4.4,2.5c-0.2,0.1-0.5,0.1-0.6,0
				c-0.2-0.2-0.3-0.4-0.3-0.8v-6.7c0-0.4,0.1-0.8,0.3-1.1c0.2-0.4,0.4-0.6,0.6-0.8l4.4-2.5c0.2-0.1,0.5-0.1,0.6,0
				c0.2,0.2,0.3,0.4,0.3,0.8V433.4z"/>
			<path class="st5" d="M1251.1,387.9c0.1-0.4,0.3-0.9,0.5-1.3c0.2-0.5,0.5-0.8,1-1l4.1-2.4c0.2-0.1,0.4-0.1,0.5,0
				c0.1,0.1,0.2,0.4,0.2,0.7c0,0.1,0,0.3-0.1,0.5l-11.3,48.1c-0.1,0.4-0.2,0.8-0.5,1.3c-0.2,0.5-0.6,0.8-1,1.1l-4.1,2.4
				c-0.2,0.1-0.4,0.1-0.5,0c-0.1-0.1-0.2-0.4-0.2-0.7c0-0.1,0-0.3,0.1-0.5L1251.1,387.9z"/>
			<path class="st5" d="M1262.5,381.3c0.1-0.4,0.3-0.9,0.5-1.3c0.2-0.5,0.5-0.8,1-1l4.1-2.4c0.2-0.1,0.4-0.1,0.5,0
				c0.1,0.1,0.2,0.4,0.2,0.7c0,0.1,0,0.3-0.1,0.5l-11.3,48.1c-0.1,0.4-0.2,0.8-0.5,1.3c-0.2,0.5-0.6,0.8-1,1.1l-4.1,2.4
				c-0.2,0.1-0.4,0.1-0.5,0c-0.1-0.1-0.2-0.4-0.2-0.7c0-0.1,0-0.3,0.1-0.5L1262.5,381.3z"/>
			<path class="st5" d="M1284.6,380.7c0.3-0.2,0.6-0.2,0.8,0c0.2,0.2,0.3,0.4,0.4,0.6l2.5,10.2l2.5-13.1c0.1-0.3,0.2-0.7,0.4-1
				c0.2-0.4,0.4-0.7,0.8-0.9l4.1-2.4c0.2-0.1,0.4-0.1,0.6,0c0.2,0.2,0.2,0.4,0.2,0.7c0,0.1,0,0.3,0,0.4l-5.3,26.9
				c-0.1,0.3-0.2,0.7-0.3,1.1c-0.2,0.4-0.4,0.7-0.8,0.8l-3.8,2.2c-0.3,0.2-0.6,0.2-0.7,0c-0.2-0.2-0.3-0.4-0.4-0.7l-2.4-9.4
				l-2.4,12.2c-0.1,0.4-0.2,0.7-0.4,1.1c-0.2,0.4-0.4,0.6-0.7,0.8l-3.8,2.2c-0.3,0.2-0.6,0.2-0.8,0c-0.2-0.2-0.3-0.4-0.3-0.7
				l-5.3-20.7c0-0.1,0-0.3,0-0.4c0-0.3,0.1-0.7,0.2-1c0.2-0.3,0.3-0.6,0.6-0.7l4.1-2.4c0.3-0.2,0.6-0.2,0.8,0
				c0.2,0.2,0.3,0.4,0.4,0.6l2.5,10.2l2.5-13.1c0.1-0.3,0.2-0.7,0.4-1c0.2-0.4,0.4-0.7,0.8-0.9L1284.6,380.7z"/>
			<path class="st5" d="M1313.5,364c0.3-0.2,0.6-0.2,0.8,0c0.2,0.2,0.3,0.4,0.4,0.6l2.5,10.2l2.5-13.1c0.1-0.3,0.2-0.7,0.4-1
				c0.2-0.4,0.4-0.7,0.8-0.9l4.1-2.4c0.2-0.1,0.4-0.1,0.6,0c0.2,0.2,0.2,0.4,0.2,0.7c0,0.1,0,0.3,0,0.4l-5.3,26.9
				c-0.1,0.3-0.2,0.7-0.4,1.1c-0.2,0.4-0.4,0.7-0.8,0.8l-3.8,2.2c-0.3,0.2-0.6,0.2-0.7,0c-0.2-0.2-0.3-0.4-0.4-0.7l-2.4-9.4
				l-2.4,12.2c-0.1,0.4-0.2,0.7-0.4,1.1c-0.2,0.4-0.4,0.6-0.7,0.8l-3.8,2.2c-0.3,0.2-0.6,0.2-0.8,0c-0.2-0.2-0.3-0.4-0.4-0.7
				l-5.3-20.7c0-0.1,0-0.3,0-0.4c0-0.3,0.1-0.7,0.2-1c0.2-0.3,0.3-0.6,0.6-0.7l4.1-2.4c0.3-0.2,0.6-0.2,0.8,0
				c0.2,0.2,0.3,0.4,0.4,0.6l2.5,10.2l2.5-13.1c0.1-0.3,0.2-0.7,0.4-1c0.2-0.4,0.4-0.7,0.8-0.9L1313.5,364z"/>
			<path class="st5" d="M1342.5,347.3c0.3-0.2,0.6-0.2,0.8,0c0.2,0.2,0.3,0.4,0.4,0.6l2.5,10.2l2.5-13.1c0.1-0.3,0.2-0.7,0.4-1
				c0.2-0.4,0.4-0.7,0.8-0.9l4.1-2.4c0.2-0.1,0.4-0.1,0.6,0c0.2,0.2,0.2,0.4,0.2,0.7c0,0.1,0,0.3,0,0.4l-5.3,26.9
				c-0.1,0.3-0.2,0.7-0.3,1.1c-0.2,0.4-0.4,0.7-0.8,0.8l-3.8,2.2c-0.3,0.2-0.6,0.2-0.7,0c-0.2-0.2-0.3-0.4-0.4-0.7l-2.4-9.4
				l-2.4,12.2c-0.1,0.4-0.2,0.7-0.4,1.1c-0.2,0.4-0.4,0.6-0.7,0.8l-3.8,2.2c-0.3,0.2-0.6,0.2-0.8,0c-0.2-0.2-0.3-0.4-0.3-0.7
				l-5.3-20.7c0-0.1,0-0.3,0-0.4c0-0.3,0.1-0.7,0.2-1c0.2-0.3,0.3-0.6,0.6-0.7l4.1-2.4c0.3-0.2,0.6-0.2,0.8,0
				c0.2,0.2,0.3,0.4,0.4,0.6l2.5,10.2l2.5-13.1c0.1-0.3,0.2-0.7,0.4-1c0.2-0.4,0.4-0.7,0.8-0.9L1342.5,347.3z"/>
			<path class="st5" d="M1362,361.4c0,0.4-0.1,0.8-0.3,1.1c-0.2,0.4-0.4,0.6-0.6,0.8l-4.4,2.5c-0.2,0.1-0.5,0.1-0.6,0
				c-0.2-0.2-0.3-0.4-0.3-0.8v-6.7c0-0.4,0.1-0.8,0.3-1.1c0.2-0.4,0.4-0.6,0.6-0.8l4.4-2.5c0.2-0.1,0.5-0.1,0.6,0
				c0.2,0.2,0.3,0.4,0.3,0.8V361.4z"/>
		</g>
	</g>
	<g id="World">
		<g id="Check_1_">
			<g id="Circle_1_">
				<path id="XMLID_306_" class="st6" d="M1116.3,414.9L1116.3,414.9l-0.1-0.1c0,0,0,0,0,0l-30.5-18.1c0,0,0,0,0,0l-0.2-0.1l0,0
					c-13.4-8.1-31.3-6.8-50.6,5.8c-38.7,25.3-68.2,86.6-65.9,136.9c1.2,25.1,10,42.7,23.4,51l0,0l0.1,0.1c0,0,0,0,0,0l30.5,18.1
					c0,0,0,0,0,0l0.1,0.1l0,0c13.4,8.1,31.4,6.8,50.6-5.7c38.7-25.3,68.2-86.6,65.9-136.9C1138.5,440.8,1129.6,423.2,1116.3,414.9z"
					/>
				<path id="XMLID_302_" class="st7" d="M1022,607.9l-29.5-17.5c0,0,0,0,0,0l-0.1-0.1c-13.4-8.3-22.2-25.9-23.4-51
					c-1-22.5,4.3-47.1,13.9-69.7l0.2-0.5l30.3,18.6c-9.6,22.6-14.9,47.2-13.9,69.7C1000.6,582,1009.1,599.4,1022,607.9z"/>
				<path id="XMLID_297_" class="st5" d="M1073.8,602.8c38.7-25.3,68.2-86.6,65.9-136.9c-2.3-50.3-35.6-70.7-74.3-45.4
					c-38.7,25.3-68.2,86.6-65.9,136.9C1001.8,607.8,1035.1,628.1,1073.8,602.8z"/>
			</g>
		</g>
		<g>
			<g>
				<path class="st1" d="M1051.9,589.5c-5.2,0-10-1.3-14.4-3.8c-12.2-7-19.2-23.1-19.2-44.1c0-38.7,23.5-83.8,52.4-100.6
					c13.1-7.6,26-8.6,36.2-2.8c12.2,7,19.2,23.1,19.2,44.1c0,38.7-23.5,83.8-52.4,100.6C1066.2,587.3,1058.8,589.5,1051.9,589.5z
					 M1092.4,440.3c-5.8,0-12.2,1.9-18.8,5.7c-27.3,15.9-49.5,58.8-49.5,95.6c0,18.9,5.9,33.1,16.3,39.1c8.3,4.8,19.1,3.8,30.3-2.8
					c27.3-15.9,49.5-58.8,49.5-95.6c0-18.9-5.9-33.1-16.3-39.1C1100.5,441.3,1096.6,440.3,1092.4,440.3z"/>
			</g>
			<g>
				<g>
					<path class="st1" d="M1051.9,492.8c-6.4,0-12.3-2-17.4-6l2.7-3.4c8.9,7,20.9,6.7,33.9-0.9c13.4-7.8,26-22.3,35.5-40.7l3.9,2
						c-9.8,19.2-23,34.3-37.2,42.5C1065.8,490.6,1058.6,492.8,1051.9,492.8z"/>
				</g>
				<g>
					<path class="st1" d="M1037.8,582.1l-3.9-2c9.8-19.2,23-34.2,37.2-42.5c14.6-8.5,28.4-8.7,38.8-0.5l-2.7,3.4
						c-8.9-7-20.9-6.7-33.9,0.9C1059.9,549.3,1047.3,563.7,1037.8,582.1z"/>
				</g>
			</g>
			<g>
				<path class="st1" d="M1066.5,584.3c-2,0-4-0.5-5.9-1.6c-10.3-5.9-16.7-27.2-16.7-55.6c0-39.1,11.9-76.6,27.1-85.5
					c4.3-2.5,8.7-2.6,12.6-0.3c10.3,5.9,16.7,27.2,16.7,55.6c0,39.1-11.9,76.6-27.1,85.5C1071,583.7,1068.8,584.3,1066.5,584.3z
					 M1077.8,444c-1.5,0-3,0.5-4.5,1.4c-13.5,7.9-24.9,45.3-24.9,81.7c0,30,7.3,47.6,14.5,51.8c2.6,1.5,5.3,1.4,8.3-0.3
					c13.5-7.9,24.9-45.3,24.9-81.7c0-30-7.3-47.6-14.5-51.8C1080.3,444.4,1079.1,444,1077.8,444z"/>
			</g>
			<g>
				<rect x="1070" y="443.5" class="st1" width="4.4" height="136.9"/>
			</g>
			<g>
				
					<rect x="1013.2" y="509.8" transform="matrix(0.8643 -0.5029 0.5029 0.8643 -112.0295 608.715)" class="st1" width="117.9" height="4.4"/>
			</g>
		</g>
	</g>
</g>
<g id="Cursor">
	<g>
		<path class="st1" d="M1428.8,415.4c-0.5-1.1-1.1-1.7-1.8-2.1l0,0l0,0l-4.5-2.6l0,0c-2-1.1-4.4,0-5.7,0.8l-2.8-1.6v0
			c-3.4-2.1-8.2,2.3-9.3,3.3l-1.2-0.7l0,0c-1.6-1-3.8-0.4-5.8,0.6v-16.5c0-1.8-0.6-3.1-1.6-3.7l0,0l0,0c0,0-0.1,0-0.1,0l-4.5-2.6
			c0,0,0,0,0,0l0,0l0,0c-1.1-0.6-2.5-0.5-4.1,0.4c-3.2,1.9-5.8,6.4-5.8,10.1v50.6c-0.2-0.1-0.5-0.2-0.7-0.3c-4-2.8-8.2-4.5-11.9-3.8
			c-3.5,0.6-6.7,3.6-7.6,5.2c-1.9,3.4,1.3,5.5,5.3,10.2c4.1,4.6,7.6,10.2,11.3,13.7c3.7,3.5,6.4,4.3,6.4,4.3v6.6l4.5,2.6l34.2-19.8
			v-6.6c0,0,4.3-16.9,5.6-24C1430.2,432.3,1431.4,420.9,1428.8,415.4z"/>
		<path class="st10" d="M1428.8,415.4c-0.5-1.1-1.1-1.7-1.8-2.1l0,0l0,0l-4.5-2.6l0,0c-2-1.1-4.4,0-5.7,0.8l-2.8-1.6v0
			c-3.4-2.1-8.2,2.3-9.3,3.3l-1.2-0.7l0,0c-1.6-1-3.8-0.4-5.8,0.6v-16.5c0-1.8-0.6-3.1-1.6-3.7l0,0l0,0c0,0-0.1,0-0.1,0l-4.5-2.6
			c0,0,0,0,0,0l0,0l0,0c-1.1-0.6-2.5-0.5-4.1,0.4c-3.2,1.9-5.8,6.4-5.8,10.1v50.6c-0.2-0.1-0.5-0.2-0.7-0.3c-4-2.8-8.2-4.5-11.9-3.8
			c-3.5,0.6-6.7,3.6-7.6,5.2c-1.9,3.4,1.3,5.5,5.3,10.2c4.1,4.6,7.6,10.2,11.3,13.7c3.7,3.5,6.4,4.3,6.4,4.3v6.6l4.5,2.6l34.2-19.8
			v-6.6c0,0,4.3-16.9,5.6-24C1430.2,432.3,1431.4,420.9,1428.8,415.4z"/>
	</g>
	<path class="st11" d="M1397.7,413.1v5.6c0,0,0,0,0,0c0.2-0.2,2.1-1.8,4.4-3L1397.7,413.1z M1418.4,410.7c-0.6,0.2-1.1,0.5-1.6,0.8
		l1.5,0.8c0.8,0.4,1.5,1.2,2.2,2.4c0,0,1.1-0.9,2.6-1.5L1418.4,410.7z M1407.7,410.8c-1.4,0.9-2.6,2-3,2.4l3,1.7
		c0.1,0,0.1,0.1,0.2,0.1c0.4,0.2,0.8,0.6,1.1,1c0,0,0,0,0,0c0.1-0.1,1.4-1.5,3.2-2.6L1407.7,410.8z M1381.5,400.7v50.6
		c1.5,0.7,3,1.7,4.5,2.8v-50.7L1381.5,400.7z M1397.7,413.1L1397.7,413.1L1397.7,413.1L1397.7,413.1z M1382.6,478.9
		c-3.7-3.4-7.3-9-11.3-13.7c-3.8-4.4-6.9-6.6-5.6-9.6l-4.5-2.6c-1.3,3.1,1.8,5.2,5.6,9.6c4.1,4.6,7.6,10.2,11.3,13.7
		c3.7,3.4,6.4,4.3,6.4,4.3v6.6l4.5,2.6v-6.6C1388.9,483.2,1386.3,482.3,1382.6,478.9z"/>
	<path class="st12" d="M1397.7,413.1v5.6c0,0,0,0,0,0c0.2-0.2,2.1-1.8,4.4-3L1397.7,413.1z M1418.4,410.7c-0.6,0.2-1.1,0.5-1.6,0.8
		l1.5,0.8c0.8,0.4,1.5,1.2,2.2,2.4c0,0,1.1-0.9,2.6-1.5L1418.4,410.7z M1407.7,410.8c-1.4,0.9-2.6,2-3,2.4l3,1.7
		c0.1,0,0.1,0.1,0.2,0.1c0.4,0.2,0.8,0.6,1.1,1c0,0,0,0,0,0c0.1-0.1,1.4-1.5,3.2-2.6L1407.7,410.8z M1381.5,400.7v50.6
		c1.5,0.7,3,1.7,4.5,2.8v-50.7L1381.5,400.7z M1397.7,413.1L1397.7,413.1L1397.7,413.1L1397.7,413.1z M1382.6,478.9
		c-3.7-3.4-7.3-9-11.3-13.7c-3.8-4.4-6.9-6.6-5.6-9.6l-4.5-2.6c-1.3,3.1,1.8,5.2,5.6,9.6c4.1,4.6,7.6,10.2,11.3,13.7
		c3.7,3.4,6.4,4.3,6.4,4.3v6.6l4.5,2.6v-6.6C1388.9,483.2,1386.3,482.3,1382.6,478.9z"/>
	<g>
		<path id="XMLID_8048_" class="st1" d="M1388.9,489.8v-6.6c0,0-2.7-0.9-6.4-4.3c-3.7-3.5-7.3-9-11.3-13.7
			c-4.1-4.7-7.3-6.8-5.3-10.2c0.9-1.6,4.1-4.6,7.6-5.2c3.9-0.7,8.4,1.2,12.6,4.3v-50.7c0-3.7,2.6-8.2,5.8-10.1l0,0
			c3.2-1.9,5.8-0.4,5.8,3.4v22.2c0,0,8-7.1,11.3-2.8c0,0,7.9-8.3,11.5-1.3c0,0,5.8-4.7,8.4,0.8c2.6,5.4,1.4,16.9,0,24
			c-1.4,7.1-5.6,24-5.6,24v6.6L1388.9,489.8z"/>
		<path id="XMLID_272_" class="st8" d="M1388.9,489.8v-6.6c0,0-2.7-0.9-6.4-4.3c-3.7-3.5-7.3-9-11.3-13.7c-4.1-4.7-7.3-6.8-5.3-10.2
			c0.9-1.6,4.1-4.6,7.6-5.2c3.9-0.7,8.4,1.2,12.6,4.3v-50.7c0-3.7,2.6-8.2,5.8-10.1l0,0c3.2-1.9,5.8-0.4,5.8,3.4v22.2
			c0,0,8-7.1,11.3-2.8c0,0,7.9-8.3,11.5-1.3c0,0,5.8-4.7,8.4,0.8c2.6,5.4,1.4,16.9,0,24c-1.4,7.1-5.6,24-5.6,24v6.6L1388.9,489.8z"
			/>
	</g>
	<g id="XMLID_8042_" class="st12">
		<path id="XMLID_8045_" d="M1397.7,428.3c0,0,0.7-10.1,4.4-12.5c0,0-0.1,0-0.1,0c-2.4,1.2-4.3,3-4.3,3v-0.2c0,0.1,0,0.2,0,0.2
			V428.3z"/>
		<path id="XMLID_8044_" d="M1408.9,416v9.3c0,0,1-9.5,3.2-11.8C1410.3,414.6,1409,416,1408.9,416z"/>
		<path id="XMLID_8043_" d="M1420.4,414.7L1420.4,414.7v9.3c0,0,0.6-9.4,2.6-10.7C1421.5,413.8,1420.4,414.7,1420.4,414.7z"/>
	</g>
</g>
<g id="Character">
	<path id="Shadow_13_" class="st2" d="M1312.9,680.4c-26.3,13.1-38.3,26.9-24.6,36.5c13.6,9.7,50.7,22.7,50.7,22.7l4.9,16.3
		l53.8-31.1v-18.5c0,0-33.2-22.9-46.2-27.3C1338.5,674.7,1328.3,672.7,1312.9,680.4z"/>
	<g id="Character_7_">
		<g>
			<g>
				<path id="XMLID_29003_" class="st13" d="M1387.2,763.8c0,0-8.1,19.9-8.5,27.8c-0.4,8.2-2.4,10.9-1,19.8c0.3,1.9,1.3,5.8,1.6,7.4
					c0.2,1.4-0.3,2.5-2.1,2.9c-3.6,0.7-9.5-5.9-12.3-13.2c-2.8-7.3-6.8-23.7-7-25.6c-0.2-1.9,0.4-4.2,1.1-5.7c1.3-2.6,1.6-3,1.6-3
					c1.2-3.6,1.7-10.3,2.7-15L1387.2,763.8z"/>
				<g>
					<path class="st7" d="M1350.8,790.4c0,0-0.9,1.6-1,2.7c-0.1,1.6,3.6,7,5.1,9c1.4,2,2.9,4.4,2.7,9.3c-0.2,5.2,2.1,10.3,5.5,14.6
						c3.4,4.3,9.2,9,17.9,11.7c8.6,2.7,11.7-1.7,11.7-1.7s2.7-4.2,1.1-5.9C1392.1,828.4,1350.8,790.4,1350.8,790.4z"/>
					<path id="XMLID_29002_" class="st5" d="M1360.5,774.2c-0.3,0-0.7-0.1-1.4,0.7c-0.3,0.3-1.8,4.2-3.1,6.2
						c-1.4,2.2-4.7,5.9-5.2,9.2c2,6.4,8,10.9,8.9,16.9c0.9,6,1,13.1,10.3,20.4c9.3,7.4,18.8,8.2,22.3,6.2c3.4-2,3.1-5.6-1.7-12.6
						c-5.1-7.4-8.5-23.5-8.5-23.5c-0.5-2.2-0.7-4.6-0.9-6.8c-0.2-2.2,0.5-4.6,0.6-6.8c0.1-1,0.1-2.2-0.4-3.1
						c-0.6-0.9-1.6-1.4-2.6-1.8c-1.5-0.7-3.1-1.3-4.8-1.6c-1.7-0.3-3.4-0.2-4.9,0.6c-1.1,0.6-1.9,1.5-3.1,2
						c-1.5,0.6-3.4,0.3-4.6-0.8c-1.8-1.6-1.5-3.1-1.2-4.2C1360.3,775.2,1360.5,774.2,1360.5,774.2z"/>
					<path class="st9" d="M1364.6,821.8c0,0,3.6-7.3,13.5-7.3c9.9,0,13.3,5.1,14.8,8c1.8,3.5,3.6,9.9-0.4,11.7
						c-4.4,2-9.5,1.4-17.5-2.6C1366.9,827.5,1364.6,821.8,1364.6,821.8z"/>
					<g>
						<path class="st9" d="M1366.4,792.1c0.3,0.1,0.6,0.1,0.9,0c1.5-0.8,9.6-2.5,14.3,1.9c0.6-0.5,0.5-1.4-0.3-2.6
							c-5.5-3.5-13.1-1.9-15-1c-0.5,0.2-0.7,0.8-0.4,1.3C1366,791.8,1366.2,792,1366.4,792.1z"/>
						<path class="st9" d="M1382.6,799.7c0.3-0.9-0.1-2.2-0.6-2.7c-5.4-2.9-12.5-1.5-14.3-0.6c-0.5,0.2-0.7,0.8-0.4,1.3
							c0.1,0.2,0.3,0.3,0.5,0.4c0.3,0.1,0.6,0.1,0.9,0C1370.2,797.4,1377.8,795.8,1382.6,799.7z"/>
						<path class="st9" d="M1386.6,813c0-1.2-0.4-2.4-1.3-3.6c-5.5-3.3-12.9-1.8-14.7-0.9c-0.5,0.2-0.7,0.8-0.4,1.3
							c0.1,0.2,0.3,0.3,0.5,0.4c0.3,0.1,0.6,0.1,0.9,0C1373.2,809.5,1382,807.7,1386.6,813z"/>
						<path class="st9" d="M1369.2,804.3c0.3,0.1,0.6,0.1,0.9,0c1.5-0.8,9.4-2.4,14.1,1.8c0.2-0.9,0-1.9-0.8-2.9
							c-5.4-2.9-12.5-1.5-14.3-0.6c-0.5,0.2-0.7,0.8-0.4,1.3C1368.9,804,1369,804.2,1369.2,804.3z"/>
					</g>
				</g>
			</g>
			<g id="XMLID_28999_">
				<path id="XMLID_29001_" class="st13" d="M1395.9,788.3c0,0,4,24.3,8.5,33.7c4.5,9.4,6.8,14,13,21.1c1.3,1.6,4.4,4.4,5.5,5.7
					c1,1.1,1.1,2.4-0.3,3.7c-2.7,2.6-14.4,3.2-20.9-1.6c-6.5-4.9-12.5-15.3-16.4-19.2c-1.5-1.5-2.8-3-4.1-4.6c-1.3-1.5-0.9-3-1-4.8
					c-0.1-0.8,0.1-3.1,0.1-3.1c-0.9-4.1-3.3-10.5-4.6-14.5L1395.9,788.3z"/>
				<g>
					<path class="st7" d="M1378,837.6c0,0-0.1,1.9,0.3,3c0.7,1.6,6.5,5,8.8,6.2c2.2,1.2,4.7,2.9,6.7,7.6c2.1,5,6.6,8.8,11.7,11.4
						c5.1,2.6,12.8,4.4,22.1,3.1c9.4-1.3,10.3-6.8,10.3-6.8s0.7-5.1-1.6-6C1434,855.1,1378,837.6,1378,837.6z"/>
					<path id="XMLID_29000_" class="st5" d="M1379.9,818c-0.3,0.1-0.7,0.2-1,1.3c-0.1,0.4,0.1,4.8-0.2,7.3c-0.3,2.7-1.8,7.7-0.8,11
						c4.7,5.2,12.4,6.7,16,12c3.6,5.3,6.8,11.9,18.9,14.8c12.1,2.8,21.5-0.7,23.8-4.1c2.4-3.4,0.4-6.7-7.2-11.2
						c-8.1-4.8-18.5-18.5-18.6-18.5c-1.4-1.9-2.7-4-3.9-6.1c-1.1-2-1.6-4.5-2.4-6.7c-0.4-1-0.9-2.1-1.8-2.7
						c-0.9-0.6-2.1-0.6-3.2-0.5c-1.8,0.1-3.5,0.1-5.2,0.6c-1.7,0.5-3.3,1.3-4.4,2.8c-0.8,1-1.2,2.3-2,3.2c-1.1,1.3-3.1,1.8-4.7,1.3
						c-2.4-0.8-2.8-2.3-3-3.4C1380.2,819,1379.9,818,1379.9,818z"/>
					<path class="st9" d="M1405,861.2c0,0,0.1-8.5,9.5-12.9c9.3-4.4,14.8-1.1,17.6,1c3.3,2.5,7.9,7.7,4.8,11.3
						c-3.3,3.8-8.4,5.5-17.7,5.3C1409.8,865.6,1405,861.2,1405,861.2z"/>
					<g>
						<path class="st9" d="M1393.5,832.3c0.3,0,0.6-0.1,0.8-0.4c1.1-1.4,8-6.6,14.4-4.6c0.4-0.7-0.2-1.5-1.5-2.4
							c-6.8-0.8-13.3,4-14.6,5.7c-0.3,0.4-0.2,1.1,0.2,1.4C1393,832.2,1393.3,832.3,1393.5,832.3z"/>
						<path class="st9" d="M1412.2,832.3c-0.1-1-1.1-2.1-1.7-2.3c-6.4-0.4-12.5,4.2-13.8,5.8c-0.3,0.4-0.2,1.1,0.2,1.4
							c0.2,0.1,0.4,0.2,0.6,0.2c0.3,0,0.6-0.1,0.8-0.4C1399.5,835.6,1406,830.7,1412.2,832.3z"/>
						<path class="st9" d="M1421.9,843.1c-0.5-1.2-1.4-2.1-2.8-2.8c-6.7-0.7-13,4.1-14.3,5.8c-0.3,0.4-0.2,1.1,0.2,1.4
							c0.2,0.1,0.4,0.2,0.6,0.2c0.3,0,0.6-0.1,0.8-0.4C1407.7,845.8,1415.3,840.1,1421.9,843.1z"/>
						<path class="st9" d="M1401.6,842.5c0.3,0,0.6-0.1,0.8-0.4c1.1-1.4,7.8-6.5,14.1-4.6c-0.2-1-0.9-1.8-2.1-2.4
							c-6.4-0.4-12.5,4.2-13.8,5.8c-0.3,0.4-0.2,1.1,0.2,1.4C1401.2,842.5,1401.4,842.5,1401.6,842.5z"/>
					</g>
				</g>
			</g>
			<g>
				<path class="st1" d="M1342.3,649.8c10,7.3,44.7,27.3,58.8,40.4c4.1,3.8,5.4,8.7,4.4,19.5c-1.4,14.7-12.9,64.7-12.9,64.7
					c-1.6,2.8-4.4-2.5-4.4-2.5l-55-69.8L1342.3,649.8z"/>
				<path class="st4" d="M1342.3,649.8c10,7.3,44.7,27.3,58.8,40.4c4.1,3.8,5.4,8.7,4.4,19.5c-1.4,14.7-12.9,64.7-12.9,64.7
					c-1.6,2.8-4.4-2.5-4.4-2.5l-55-69.8L1342.3,649.8z"/>
				<path class="st4" d="M1390.2,758.9c-12.7-10.6-53.8-75.5-53.8-75.5s0,0,0,0c5.6-4.7,8.5-21.1,8.5-21.1
					c2.2,6.3-0.1,15.9-1.8,19.4c3.2,2.8,21.5,17.8,34.2,27.9c3.2,2.5,6.4,5.6,7.5,11.4C1387.4,734.6,1390.5,756.1,1390.2,758.9z"/>
			</g>
			<g id="XMLID_28998_">
				<path class="st1" d="M1342.3,649.8L1342.3,649.8l-70.8,15.7c3.5,13,4.4,19.7,8.1,26.6c3.6,6.9,7.6,14.2,26.1,23.3
					c17.7,8.7,39.4,17.7,43.7,19.8c3.3,1.6,4.8,8.1,6.3,16.5c1.5,8.9,1.7,15.8,10.5,34.5c8.6,18.2,10.4,22.2,10.4,22.2
					s13.3,1.4,22.1-6.4c0,0-12.1-62.6-14.6-73.8c-1.4-6.3-1.5-9.6-9.3-16.5c-6.7-5.9-36.6-28.6-36.6-28.6S1349.9,667,1342.3,649.8z"
					/>
				<path class="st4" d="M1342.3,649.8L1342.3,649.8l-70.8,15.7c3.5,13,4.4,19.7,8.1,26.6c3.6,6.9,7.6,14.2,26.1,23.3
					c17.7,8.7,39.4,17.7,43.7,19.8c3.3,1.6,4.8,8.1,6.3,16.5c1.5,8.9,1.7,15.8,10.5,34.5c8.6,18.2,10.4,22.2,10.4,22.2
					s13.3,1.4,22.1-6.4c0,0-12.1-62.6-14.6-73.8c-1.4-6.3-1.5-9.6-9.3-16.5c-6.7-5.9-36.6-28.6-36.6-28.6S1349.9,667,1342.3,649.8z"
					/>
			</g>
		</g>
		<g>
			<path class="st13" d="M1423.7,532.2c-1.2-0.1-2.4,0.2-3.5,0.7c-1.3,0.6-2.4,1.5-3.6,2.3c-1.8,1.3-3.6,2.5-5.4,3.7
				c-1.6,1-3.4,2.2-5.3,2.5c-0.7,0.1-2.1,0.1-1.3-0.9c0.9-1.3,2-2.5,2.7-4c0.7-1.4,1-3.2,0.4-4.6c-0.2-0.4-0.5-0.9-0.9-1.1
				c-0.6-0.3-0.9,0-1.3,0.5c-0.4,0.4-0.8,0.8-1.2,1.2c-0.9,0.8-1.8,1.6-2.6,2.4c-5.1,4.6-11.3,8.6-13.5,15.3
				c-0.3,1-1.8,5.4-1.8,12.7c0,7.3-0.5,32.9-0.5,32.9s-20.3-17.1-29.1-24.4c-4.2-3.5-10.2-7.9-16.7-8.5c-4.6-0.4-7.3-0.4-7.3-0.4
				l13.8,33.6c0,0,26.2,19.5,38.7,26.2c11.3,6,16.8,1.7,18.2-1.5c2.3-5.3,4.6-7.7,1.4-37.1c-0.2-2.3-0.5-8.8-0.8-11
				c-0.3-4.7,0.2-9.6,2-10.6c3.4-1.9,6.7-4,9.6-6.5c1.9-1.7,3.7-3.6,5.1-5.7c0.6-0.9,1.6-2.2,1.7-3.3c0.1-1.1-0.4-2.3,0-3.4
				c0.2-0.7,0.7-1.4,0.9-2.1c0.4-1.6,0.2-3.5,1.3-4.9c0.6-0.8,1.5-1.5,1.4-2.4c-0.1-0.8-0.9-1.2-1.6-1.4
				C1424.1,532.2,1423.9,532.2,1423.7,532.2z"/>
			<path class="st14" d="M1403,544.9c-0.6,4-3.4,8.9-5.3,10.6c0,0,3.2-1.8,4.5-4.6C1403.6,547.9,1403.5,546.4,1403,544.9z"/>
			<path class="st1" d="M1331.2,561.8c7.1,0.3,12.6,0.5,18.6,3.9c6,3.5,32.9,26,32.9,26s0.3-11.5,1-17.5c0.5-4.2,1.2-5.5,2.5-5.3
				c0,0,2.3,3.6,8.9,4.1c6.6,0.5,8.8-2.2,8.8-2.2s1.9-0.5,2.6,2.2c0.7,2.7,1.9,32,0.7,40.4c-1.2,8.4-5,12.4-10.1,13.5
				c-5.1,1.2-16.8-5.9-30.9-15.4s-29.4-18.3-29.4-18.3L1331.2,561.8z"/>
			<path class="st15" d="M1331.2,561.8c7.1,0.3,12.6,0.5,18.6,3.9c6,3.5,32.9,26,32.9,26s0.3-11.5,1-17.5c0.5-4.2,1.2-5.5,2.5-5.3
				c0,0,2.3,3.6,8.9,4.1c6.6,0.5,8.8-2.2,8.8-2.2s1.9-0.5,2.6,2.2c0.7,2.7,1.9,32,0.7,40.4c-1.2,8.4-5,12.4-10.1,13.5
				c-5.1,1.2-16.8-5.9-30.9-15.4s-29.4-18.3-29.4-18.3L1331.2,561.8z"/>
			<path class="st12" d="M1382.7,591.7c-1.1,7.9,0.6,16.4,0.6,16.4s-5.2-10-3.6-19.1L1382.7,591.7z"/>
		</g>
		<g>
			<path id="XMLID_28996_" class="st9" d="M1273.1,568c-1.2,6.2-12.9,64.8,0.4,108.6c24,2.8,66.2-8.2,72.5-24.1
				c0,0-4.3-15.1-6.1-22.5c0.4-12.1,0-35.2-0.2-42.3c-0.5-14.2-2.7-25.1-9.7-26.1c0,0-14.1-0.6-22.6-0.2c-7.4,0.3-12.9,0.4-12.9,0.4
				L1273.1,568z"/>
			<path class="st16" d="M1308.4,661.2c-1.6-3.4-30.1-21-30.1-21s0.4-8.2,2.1-23.2c1.7-15,2.2-33-3.2-42l-5.5,0.2
				c-3.1,18.2-9.3,64.9,1.8,101.3c12.8,1.5,30.8-0.9,45.7-5.9C1316.5,668.8,1309.6,664,1308.4,661.2z"/>
			<g>
				<path class="st5" d="M1292,547.9c0-3-5.8-12.1-8.4-19.3c-4.4-12-4.8-22.8,6.1-27.4c0,0,6.8-11.7,23.9-12.3
					c17.1-0.6,30.3,13.9,24.6,33.2L1292,547.9z"/>
				<g id="XMLID_28983_">
					<g id="XMLID_28990_">
						<path id="XMLID_28992_" class="st13" d="M1296.2,529.4c-2.2,0-3.1-3.2-4.6-4.9c-1.5-1.7-6.8-3.7-10.2,1.3
							c-3.2,4.6-0.1,11.2,3.4,13.7c4.3,3.2,7.4,0.1,7.4,0.1l-0.4,24.2c0,0,0.8,5.4,10.7,8.5c11.4,3.6,20.7-2.4,13.9-9.9l0.3-6.4
							c3.2,0.7,7.7,1.1,11,0.6c3.8-0.6,6.9-3.4,8.8-9.3c3.8-11.5,2.8-26.8-1.2-40.7c-3.8,3-21.2,8.6-36.9,3
							C1298.9,519.2,1298.4,529.4,1296.2,529.4z"/>
						<path class="st7" d="M1290,536.9c0,0.8-0.6,1.4-1.4,1.4c-0.8,0-1.4-0.6-1.4-1.4c0-0.8,0.6-1.4,1.4-1.4
							C1289.4,535.5,1290,536.1,1290,536.9z"/>
						<path id="XMLID_28991_" class="st14" d="M1316.5,556c0,0-9.5-2.8-13.3-5.4c-2.8-1.9-5.2-5-5.8-6.7c0,0,1.4,5.1,4,8.1
							c4.5,5.2,15,7.6,15,7.6L1316.5,556z"/>
					</g>
					<g id="XMLID_28984_">
						<path id="XMLID_28989_" class="st7" d="M1315.8,529.3c0,1.4-1,2.5-2.3,2.5c-1.3,0-2.4-1.1-2.4-2.4c0-1.4,1-2.5,2.3-2.5
							C1314.7,526.8,1315.7,527.9,1315.8,529.3z"/>
						<path id="XMLID_28987_" class="st7" d="M1313.2,521.2l-5.1,2.7c-0.7-1.5-0.2-3.3,1.3-4
							C1310.7,519.1,1312.5,519.7,1313.2,521.2z"/>
						<path id="XMLID_28988_" class="st14" d="M1315,541.8l8.2,2.6c-0.8,2.3-3.3,3.6-5.5,2.8C1315.4,546.5,1314.2,544,1315,541.8z"
							/>
						<path id="XMLID_28986_" class="st7" d="M1335.1,521.1l-5.6-1.5c0.4-1.6,1.9-2.5,3.5-2.1
							C1334.5,517.9,1335.5,519.5,1335.1,521.1z"/>
						<path id="XMLID_28985_" class="st7" d="M1333.7,527.4c0,1.4-1,2.5-2.3,2.5c-1.3,0-2.4-1.1-2.4-2.4c0-1.4,1-2.5,2.3-2.5
							C1332.6,525,1333.6,526.1,1333.7,527.4z"/>
					</g>
				</g>
				<path class="st6" d="M1336.3,506.5c5.3-3.8,8.2-8.8,6.8-15.7c-2.1,2.1-7.8,2.4-12.9,0c-5.4-2.6-13.9-6-25.8-3.7
					c-9.3,1.8-14.8,8.9-14.8,14.1c1.8,3.7,4.3,5.7,8.6,8.3c0,0,8.9,7.3,22.5,6.5c8.7-0.5,13.2-4.8,13.2-4.8s-4.9,0.4-7.1-1.1
					C1326.8,510.2,1332.4,509.4,1336.3,506.5z"/>
				<g id="XMLID_28981_">
					<polygon id="XMLID_28982_" class="st14" points="1323.5,538.7 1330.7,535.4 1321.4,522.6 					"/>
				</g>
			</g>
		</g>
		<g id="Laptop_1_">
			<path class="st2" d="M1403.3,692.8c-0.6-0.9-1.3-1.8-2.2-2.6c-8.5-7.8-24.4-18.2-37.9-26.8l-61.5,35.5c-0.4,0.2-0.4,0.8,0,1
				l44.7,25.8L1403.3,692.8z"/>
			<g id="XMLID_28964_">
				<g>
					<g id="XMLID_28980_">
						<path class="st6" d="M1421.9,674.8v1c0,1.5-0.8,2.8-2,3.5l-71.5,41.3c-0.6,0.4-1.3,0.5-2,0.5c-0.7,0-1.4-0.2-2.1-0.5l-39-22.4
							c-1.3-0.7-2-2.1-2-3.5v-1.4h0v0c0,0.2,0.1,0.3,0.3,0.4l42.8,24.7L1421.9,674.8z"/>
					</g>
					<g id="XMLID_28979_">
						<path class="st7" d="M1346.4,718.4v2.7c0.7,0,1.4-0.2,2-0.5l71.5-41.3c1.3-0.7,2-2.1,2-3.5v-1L1346.4,718.4z"/>
					</g>
					<g id="XMLID_28978_">
						<path class="st5" d="M1421.9,674.7l-42.4-24.5c-0.8-0.4-1.7-0.4-2.4,0l-73.5,42.5c-0.4,0.2-0.4,0.7,0,0.9l42.8,24.7
							L1421.9,674.7z"/>
					</g>
					<g>
						<g id="XMLID_28972_">
							<polygon class="st6" points="1346,714.8 1323.1,701.6 1389.9,663 1412.9,676.1 							"/>
						</g>
						<g id="XMLID_28971_">
							<polygon class="st7" points="1412.9,676.1 1412.1,676.6 1389.9,664 1324,702.1 1323.1,701.6 1389.9,663 							"/>
						</g>
					</g>
					<g>
						<g id="XMLID_28970_">
							<polygon class="st7" points="1334.7,678.1 1335.1,678.3 1346.4,684.8 1366.3,673.3 1366.7,673.1 1355.1,666.4 							"/>
						</g>
						<g id="XMLID_28969_">
							<polygon class="st6" points="1335.1,678.3 1346.4,684.8 1366.3,673.3 1355.1,666.8 							"/>
						</g>
					</g>
				</g>
				<g id="Arm_5_">
					<path class="st13" d="M1356.4,686.1c-3.2-3.2-7.9-7.6-11.8-8.9c-0.5-0.2-1.3-0.5-2.7-0.9c1.3-0.3,2.7-0.4,4-0.8
						c1.3-0.4,2.5-1.2,3.4-2.2c0.3-0.4,0.6-1.1,0.2-1.5c-0.2-0.1-0.4-0.2-0.6-0.2c-2.9-0.1-5.2-0.5-7.9-0.7
						c-1.2-0.1-2.5-0.2-3.6,0.1c-1.1,0.3-2.2,0.6-3.2,1c-4.9,1.7-9.3,3.2-16.2,1.6l-12.4-6.6c0,0-2.6-0.7-6.5,5.9
						c-3.9,6.6-1.6,10.2-1.6,10.2l13.9,4.8c0,0,0,0,0,0c0.1,0,0.1,0.1,0.2,0.1c1.5,0.6,2.9,1.8,6.6,2.9c4.3,1.3,9.9-0.2,13.6-0.4
						s10.1,1.5,13.6,3s7.7-4,9.4-3.3C1356.6,690.7,1359.6,689.3,1356.4,686.1z"/>
					<path class="st14" d="M1340.3,674.3c-2.5-0.3-5.3,0.9-5.3,0.9s3.1,0.1,6.9,1.2c1.3-0.3,2.7-0.4,4-0.8c1.2-0.4,2.3-1,3.1-1.9
						C1346.9,675.1,1342.8,674.6,1340.3,674.3z"/>
					<g>
						<path class="st1" d="M1273.1,568c3.5,1.4,8.1,16.1,5.3,30.2l-6.6,44.2c0,0,8,4.8,19.3,11.7c7.8,4.8,14.5,9.3,14.5,12.9
							c-5.1,1.8-9.7,11.3-8.2,16.2c-3.5,4.1-35.7-13.7-47-21.4c-5.2-3.6-7.9-5-5.8-21.1c2.2-17.9,3.7-37.7,7.2-50.9
							C1255.5,575.8,1259.5,570.4,1273.1,568z"/>
						<path class="st15" d="M1273.1,568c3.5,1.4,8.1,16.1,5.3,30.2l-6.6,44.2c0,0,8,4.8,19.3,11.7c7.8,4.8,14.5,9.3,14.5,12.9
							c-5.1,1.8-9.7,11.3-8.2,16.2c-3.5,4.1-35.7-13.7-47-21.4c-5.2-3.6-7.9-5-5.8-21.1c2.2-17.9,3.7-37.7,7.2-50.9
							C1255.5,575.8,1259.5,570.4,1273.1,568z"/>
					</g>
				</g>
				<g>
					<g id="XMLID_28968_">
						<path class="st6" d="M1347.5,719c1.4,0.5,2.9,0.4,4.2-0.3l71.2-41.1c1.3-0.7,2.1-2,2.4-3.4l7.8-46.5c0-0.3,0.1-0.5,0.1-0.8
							c0-1.3-0.5-2.5-1.4-3.4l-74,42.7c-0.9,0.5-1.6,1.5-1.7,2.5L1347.5,719z"/>
					</g>
					<g id="XMLID_28967_">
						<path class="st5" d="M1346.4,718.4l0.5,0.3c0.2,0.1,0.4,0.2,0.7,0.3l8.4-50.3c0.2-1.1,0.8-2,1.7-2.5l74-42.7
							c-0.3-0.3-0.6-0.5-1-0.8l-74.1,42.8c-0.9,0.5-1.6,1.5-1.7,2.5L1346.4,718.4z"/>
					</g>
					<g id="XMLID_28966_">
						<path class="st7" d="M1356.6,667.1l-1.1-0.7c-0.3,0.5-0.6,1-0.7,1.5l-8.4,50.4l0.5,0.3c0.2,0.1,0.4,0.2,0.7,0.3l8.4-50.3
							C1356,668.1,1356.3,667.6,1356.6,667.1z"/>
					</g>
					<g id="XMLID_28965_">
						<path class="st1" d="M1387.6,676.1c0.5-3.1,3.7-7.2,7.2-9.2c3.4-2,5.8-1.1,5.3,2c-0.5,3.1-3.7,7.2-7.2,9.2
							C1389.4,680.1,1387.1,679.2,1387.6,676.1z"/>
					</g>
				</g>
			</g>
		</g>
	</g>
</g>
</svg>
